<?xml version="1.0" encoding="utf-8" standalone="no"?>
<!DOCTYPE svg PUBLIC "-//W3C//DTD SVG 1.1//EN"
  "http://www.w3.org/Graphics/SVG/1.1/DTD/svg11.dtd">
<svg xmlns:xlink="http://www.w3.org/1999/xlink" width="100%" viewBox="0 0 459.449937 456.399624" xmlns="http://www.w3.org/2000/svg" version="1.1">
 <metadata>
  <rdf:RDF xmlns:dc="http://purl.org/dc/elements/1.1/" xmlns:cc="http://creativecommons.org/ns#" xmlns:rdf="http://www.w3.org/1999/02/22-rdf-syntax-ns#">
   <cc:Work>
    <dc:type rdf:resource="http://purl.org/dc/dcmitype/StillImage"/>
    <dc:date>2026-04-21T00:39:37.683407</dc:date>
    <dc:format>image/svg+xml</dc:format>
    <dc:creator>
     <cc:Agent>
      <dc:title>Matplotlib v3.10.8, https://matplotlib.org/</dc:title>
     </cc:Agent>
    </dc:creator>
   </cc:Work>
  </rdf:RDF>
 </metadata>
 <defs>
  <style type="text/css">*{stroke-linejoin: round; stroke-linecap: butt}</style>
 </defs>
 <g id="figure_1">
  <g id="patch_1">
   <path d="M 0 456.399624 
L 459.449937 456.399624 
L 459.449937 0 
L 0 0 
L 0 456.399624 
z
" style="fill: none"/>
  </g>
  <g id="axes_1">
   <g id="patch_2">
    <path d="M 42.542188 416.907749 
L 452.249937 416.907749 
L 452.249937 7.2 
L 42.542188 7.2 
L 42.542188 416.907749 
z
" style="fill: none"/>
   </g>
   <g id="matplotlib.axis_1">
    <g id="xtick_1">
     <g id="line2d_1">
      <path d="M 65.303729 416.907749 
L 65.303729 7.2 
" clip-path="url(#p6a7b6591ba)" style="fill: none; stroke: #888888; stroke-opacity: 0.15; stroke-width: 0.6; stroke-linecap: square"/>
     </g>
     <g id="line2d_2">
      <defs>
       <path id="m6b6c0e464a" d="M 0 0 
L 0 3.5 
" style="stroke: #888888; stroke-width: 0.8"/>
      </defs>
      <g>
       <use xlink:href="#m6b6c0e464a" x="65.303729" y="416.907749" style="fill: #888888; stroke: #888888; stroke-width: 0.8"/>
      </g>
     </g>
     <g id="text_1">
      <!-- −2 -->
      <g style="fill: #888888" transform="translate(57.932635 431.506187) scale(0.1 -0.1)">
       <defs>
        <path id="DejaVuSans-2212" d="M 678 2272 
L 4684 2272 
L 4684 1741 
L 678 1741 
L 678 2272 
z
" transform="scale(0.015625)"/>
        <path id="DejaVuSans-32" d="M 1228 531 
L 3431 531 
L 3431 0 
L 469 0 
L 469 531 
Q 828 903 1448 1529 
Q 2069 2156 2228 2338 
Q 2531 2678 2651 2914 
Q 2772 3150 2772 3378 
Q 2772 3750 2511 3984 
Q 2250 4219 1831 4219 
Q 1534 4219 1204 4116 
Q 875 4013 500 3803 
L 500 4441 
Q 881 4594 1212 4672 
Q 1544 4750 1819 4750 
Q 2544 4750 2975 4387 
Q 3406 4025 3406 3419 
Q 3406 3131 3298 2873 
Q 3191 2616 2906 2266 
Q 2828 2175 2409 1742 
Q 1991 1309 1228 531 
z
" transform="scale(0.015625)"/>
       </defs>
       <use xlink:href="#DejaVuSans-2212"/>
       <use xlink:href="#DejaVuSans-32" transform="translate(83.789062 0)"/>
      </g>
     </g>
    </g>
    <g id="xtick_2">
     <g id="line2d_3">
      <path d="M 110.826812 416.907749 
L 110.826812 7.2 
" clip-path="url(#p6a7b6591ba)" style="fill: none; stroke: #888888; stroke-opacity: 0.15; stroke-width: 0.6; stroke-linecap: square"/>
     </g>
     <g id="line2d_4">
      <g>
       <use xlink:href="#m6b6c0e464a" x="110.826812" y="416.907749" style="fill: #888888; stroke: #888888; stroke-width: 0.8"/>
      </g>
     </g>
     <g id="text_2">
      <!-- −1 -->
      <g style="fill: #888888" transform="translate(103.455719 431.506187) scale(0.1 -0.1)">
       <defs>
        <path id="DejaVuSans-31" d="M 794 531 
L 1825 531 
L 1825 4091 
L 703 3866 
L 703 4441 
L 1819 4666 
L 2450 4666 
L 2450 531 
L 3481 531 
L 3481 0 
L 794 0 
L 794 531 
z
" transform="scale(0.015625)"/>
       </defs>
       <use xlink:href="#DejaVuSans-2212"/>
       <use xlink:href="#DejaVuSans-31" transform="translate(83.789062 0)"/>
      </g>
     </g>
    </g>
    <g id="xtick_3">
     <g id="line2d_5">
      <path d="M 156.349896 416.907749 
L 156.349896 7.2 
" clip-path="url(#p6a7b6591ba)" style="fill: none; stroke: #888888; stroke-opacity: 0.15; stroke-width: 0.6; stroke-linecap: square"/>
     </g>
     <g id="line2d_6">
      <g>
       <use xlink:href="#m6b6c0e464a" x="156.349896" y="416.907749" style="fill: #888888; stroke: #888888; stroke-width: 0.8"/>
      </g>
     </g>
     <g id="text_3">
      <!-- 0 -->
      <g style="fill: #888888" transform="translate(153.168646 431.506187) scale(0.1 -0.1)">
       <defs>
        <path id="DejaVuSans-30" d="M 2034 4250 
Q 1547 4250 1301 3770 
Q 1056 3291 1056 2328 
Q 1056 1369 1301 889 
Q 1547 409 2034 409 
Q 2525 409 2770 889 
Q 3016 1369 3016 2328 
Q 3016 3291 2770 3770 
Q 2525 4250 2034 4250 
z
M 2034 4750 
Q 2819 4750 3233 4129 
Q 3647 3509 3647 2328 
Q 3647 1150 3233 529 
Q 2819 -91 2034 -91 
Q 1250 -91 836 529 
Q 422 1150 422 2328 
Q 422 3509 836 4129 
Q 1250 4750 2034 4750 
z
" transform="scale(0.015625)"/>
       </defs>
       <use xlink:href="#DejaVuSans-30"/>
      </g>
     </g>
    </g>
    <g id="xtick_4">
     <g id="line2d_7">
      <path d="M 201.872979 416.907749 
L 201.872979 7.2 
" clip-path="url(#p6a7b6591ba)" style="fill: none; stroke: #888888; stroke-opacity: 0.15; stroke-width: 0.6; stroke-linecap: square"/>
     </g>
     <g id="line2d_8">
      <g>
       <use xlink:href="#m6b6c0e464a" x="201.872979" y="416.907749" style="fill: #888888; stroke: #888888; stroke-width: 0.8"/>
      </g>
     </g>
     <g id="text_4">
      <!-- 1 -->
      <g style="fill: #888888" transform="translate(198.691729 431.506187) scale(0.1 -0.1)">
       <use xlink:href="#DejaVuSans-31"/>
      </g>
     </g>
    </g>
    <g id="xtick_5">
     <g id="line2d_9">
      <path d="M 247.396062 416.907749 
L 247.396062 7.2 
" clip-path="url(#p6a7b6591ba)" style="fill: none; stroke: #888888; stroke-opacity: 0.15; stroke-width: 0.6; stroke-linecap: square"/>
     </g>
     <g id="line2d_10">
      <g>
       <use xlink:href="#m6b6c0e464a" x="247.396062" y="416.907749" style="fill: #888888; stroke: #888888; stroke-width: 0.8"/>
      </g>
     </g>
     <g id="text_5">
      <!-- 2 -->
      <g style="fill: #888888" transform="translate(244.214812 431.506187) scale(0.1 -0.1)">
       <use xlink:href="#DejaVuSans-32"/>
      </g>
     </g>
    </g>
    <g id="xtick_6">
     <g id="line2d_11">
      <path d="M 292.919145 416.907749 
L 292.919145 7.2 
" clip-path="url(#p6a7b6591ba)" style="fill: none; stroke: #888888; stroke-opacity: 0.15; stroke-width: 0.6; stroke-linecap: square"/>
     </g>
     <g id="line2d_12">
      <g>
       <use xlink:href="#m6b6c0e464a" x="292.919145" y="416.907749" style="fill: #888888; stroke: #888888; stroke-width: 0.8"/>
      </g>
     </g>
     <g id="text_6">
      <!-- 3 -->
      <g style="fill: #888888" transform="translate(289.737895 431.506187) scale(0.1 -0.1)">
       <defs>
        <path id="DejaVuSans-33" d="M 2597 2516 
Q 3050 2419 3304 2112 
Q 3559 1806 3559 1356 
Q 3559 666 3084 287 
Q 2609 -91 1734 -91 
Q 1441 -91 1130 -33 
Q 819 25 488 141 
L 488 750 
Q 750 597 1062 519 
Q 1375 441 1716 441 
Q 2309 441 2620 675 
Q 2931 909 2931 1356 
Q 2931 1769 2642 2001 
Q 2353 2234 1838 2234 
L 1294 2234 
L 1294 2753 
L 1863 2753 
Q 2328 2753 2575 2939 
Q 2822 3125 2822 3475 
Q 2822 3834 2567 4026 
Q 2313 4219 1838 4219 
Q 1578 4219 1281 4162 
Q 984 4106 628 3988 
L 628 4550 
Q 988 4650 1302 4700 
Q 1616 4750 1894 4750 
Q 2613 4750 3031 4423 
Q 3450 4097 3450 3541 
Q 3450 3153 3228 2886 
Q 3006 2619 2597 2516 
z
" transform="scale(0.015625)"/>
       </defs>
       <use xlink:href="#DejaVuSans-33"/>
      </g>
     </g>
    </g>
    <g id="xtick_7">
     <g id="line2d_13">
      <path d="M 338.442229 416.907749 
L 338.442229 7.2 
" clip-path="url(#p6a7b6591ba)" style="fill: none; stroke: #888888; stroke-opacity: 0.15; stroke-width: 0.6; stroke-linecap: square"/>
     </g>
     <g id="line2d_14">
      <g>
       <use xlink:href="#m6b6c0e464a" x="338.442229" y="416.907749" style="fill: #888888; stroke: #888888; stroke-width: 0.8"/>
      </g>
     </g>
     <g id="text_7">
      <!-- 4 -->
      <g style="fill: #888888" transform="translate(335.260979 431.506187) scale(0.1 -0.1)">
       <defs>
        <path id="DejaVuSans-34" d="M 2419 4116 
L 825 1625 
L 2419 1625 
L 2419 4116 
z
M 2253 4666 
L 3047 4666 
L 3047 1625 
L 3713 1625 
L 3713 1100 
L 3047 1100 
L 3047 0 
L 2419 0 
L 2419 1100 
L 313 1100 
L 313 1709 
L 2253 4666 
z
" transform="scale(0.015625)"/>
       </defs>
       <use xlink:href="#DejaVuSans-34"/>
      </g>
     </g>
    </g>
    <g id="xtick_8">
     <g id="line2d_15">
      <path d="M 383.965312 416.907749 
L 383.965312 7.2 
" clip-path="url(#p6a7b6591ba)" style="fill: none; stroke: #888888; stroke-opacity: 0.15; stroke-width: 0.6; stroke-linecap: square"/>
     </g>
     <g id="line2d_16">
      <g>
       <use xlink:href="#m6b6c0e464a" x="383.965312" y="416.907749" style="fill: #888888; stroke: #888888; stroke-width: 0.8"/>
      </g>
     </g>
     <g id="text_8">
      <!-- 5 -->
      <g style="fill: #888888" transform="translate(380.784062 431.506187) scale(0.1 -0.1)">
       <defs>
        <path id="DejaVuSans-35" d="M 691 4666 
L 3169 4666 
L 3169 4134 
L 1269 4134 
L 1269 2991 
Q 1406 3038 1543 3061 
Q 1681 3084 1819 3084 
Q 2600 3084 3056 2656 
Q 3513 2228 3513 1497 
Q 3513 744 3044 326 
Q 2575 -91 1722 -91 
Q 1428 -91 1123 -41 
Q 819 9 494 109 
L 494 744 
Q 775 591 1075 516 
Q 1375 441 1709 441 
Q 2250 441 2565 725 
Q 2881 1009 2881 1497 
Q 2881 1984 2565 2268 
Q 2250 2553 1709 2553 
Q 1456 2553 1204 2497 
Q 953 2441 691 2322 
L 691 4666 
z
" transform="scale(0.015625)"/>
       </defs>
       <use xlink:href="#DejaVuSans-35"/>
      </g>
     </g>
    </g>
    <g id="xtick_9">
     <g id="line2d_17">
      <path d="M 429.488395 416.907749 
L 429.488395 7.2 
" clip-path="url(#p6a7b6591ba)" style="fill: none; stroke: #888888; stroke-opacity: 0.15; stroke-width: 0.6; stroke-linecap: square"/>
     </g>
     <g id="line2d_18">
      <g>
       <use xlink:href="#m6b6c0e464a" x="429.488395" y="416.907749" style="fill: #888888; stroke: #888888; stroke-width: 0.8"/>
      </g>
     </g>
     <g id="text_9">
      <!-- 6 -->
      <g style="fill: #888888" transform="translate(426.307145 431.506187) scale(0.1 -0.1)">
       <defs>
        <path id="DejaVuSans-36" d="M 2113 2584 
Q 1688 2584 1439 2293 
Q 1191 2003 1191 1497 
Q 1191 994 1439 701 
Q 1688 409 2113 409 
Q 2538 409 2786 701 
Q 3034 994 3034 1497 
Q 3034 2003 2786 2293 
Q 2538 2584 2113 2584 
z
M 3366 4563 
L 3366 3988 
Q 3128 4100 2886 4159 
Q 2644 4219 2406 4219 
Q 1781 4219 1451 3797 
Q 1122 3375 1075 2522 
Q 1259 2794 1537 2939 
Q 1816 3084 2150 3084 
Q 2853 3084 3261 2657 
Q 3669 2231 3669 1497 
Q 3669 778 3244 343 
Q 2819 -91 2113 -91 
Q 1303 -91 875 529 
Q 447 1150 447 2328 
Q 447 3434 972 4092 
Q 1497 4750 2381 4750 
Q 2619 4750 2861 4703 
Q 3103 4656 3366 4563 
z
" transform="scale(0.015625)"/>
       </defs>
       <use xlink:href="#DejaVuSans-36"/>
      </g>
     </g>
    </g>
    <g id="text_10">
     <!-- $x$ -->
     <g style="fill: #888888" transform="translate(243.796062 446.703999) scale(0.12 -0.12)">
      <defs>
       <path id="DejaVuSans-Oblique-78" d="M 3841 3500 
L 2234 1784 
L 3219 0 
L 2559 0 
L 1819 1388 
L 531 0 
L -166 0 
L 1556 1844 
L 641 3500 
L 1300 3500 
L 1972 2234 
L 3144 3500 
L 3841 3500 
z
" transform="scale(0.015625)"/>
      </defs>
      <use xlink:href="#DejaVuSans-Oblique-78" transform="translate(0 0.3125)"/>
     </g>
    </g>
   </g>
   <g id="matplotlib.axis_2">
    <g id="ytick_1">
     <g id="line2d_19">
      <path d="M 42.542188 394.146208 
L 452.249937 394.146208 
" clip-path="url(#p6a7b6591ba)" style="fill: none; stroke: #888888; stroke-opacity: 0.15; stroke-width: 0.6; stroke-linecap: square"/>
     </g>
     <g id="line2d_20">
      <defs>
       <path id="mfbde9636e2" d="M 0 0 
L -3.5 0 
" style="stroke: #888888; stroke-width: 0.8"/>
      </defs>
      <g>
       <use xlink:href="#mfbde9636e2" x="42.542188" y="394.146208" style="fill: #888888; stroke: #888888; stroke-width: 0.8"/>
      </g>
     </g>
     <g id="text_11">
      <!-- −2 -->
      <g style="fill: #888888" transform="translate(20.8 397.945426) scale(0.1 -0.1)">
       <use xlink:href="#DejaVuSans-2212"/>
       <use xlink:href="#DejaVuSans-32" transform="translate(83.789062 0)"/>
      </g>
     </g>
    </g>
    <g id="ytick_2">
     <g id="line2d_21">
      <path d="M 42.542188 348.623124 
L 452.249937 348.623124 
" clip-path="url(#p6a7b6591ba)" style="fill: none; stroke: #888888; stroke-opacity: 0.15; stroke-width: 0.6; stroke-linecap: square"/>
     </g>
     <g id="line2d_22">
      <g>
       <use xlink:href="#mfbde9636e2" x="42.542188" y="348.623124" style="fill: #888888; stroke: #888888; stroke-width: 0.8"/>
      </g>
     </g>
     <g id="text_12">
      <!-- −1 -->
      <g style="fill: #888888" transform="translate(20.8 352.422343) scale(0.1 -0.1)">
       <use xlink:href="#DejaVuSans-2212"/>
       <use xlink:href="#DejaVuSans-31" transform="translate(83.789062 0)"/>
      </g>
     </g>
    </g>
    <g id="ytick_3">
     <g id="line2d_23">
      <path d="M 42.542188 303.100041 
L 452.249937 303.100041 
" clip-path="url(#p6a7b6591ba)" style="fill: none; stroke: #888888; stroke-opacity: 0.15; stroke-width: 0.6; stroke-linecap: square"/>
     </g>
     <g id="line2d_24">
      <g>
       <use xlink:href="#mfbde9636e2" x="42.542188" y="303.100041" style="fill: #888888; stroke: #888888; stroke-width: 0.8"/>
      </g>
     </g>
     <g id="text_13">
      <!-- 0 -->
      <g style="fill: #888888" transform="translate(29.179688 306.89926) scale(0.1 -0.1)">
       <use xlink:href="#DejaVuSans-30"/>
      </g>
     </g>
    </g>
    <g id="ytick_4">
     <g id="line2d_25">
      <path d="M 42.542188 257.576958 
L 452.249937 257.576958 
" clip-path="url(#p6a7b6591ba)" style="fill: none; stroke: #888888; stroke-opacity: 0.15; stroke-width: 0.6; stroke-linecap: square"/>
     </g>
     <g id="line2d_26">
      <g>
       <use xlink:href="#mfbde9636e2" x="42.542188" y="257.576958" style="fill: #888888; stroke: #888888; stroke-width: 0.8"/>
      </g>
     </g>
     <g id="text_14">
      <!-- 1 -->
      <g style="fill: #888888" transform="translate(29.179688 261.376177) scale(0.1 -0.1)">
       <use xlink:href="#DejaVuSans-31"/>
      </g>
     </g>
    </g>
    <g id="ytick_5">
     <g id="line2d_27">
      <path d="M 42.542188 212.053875 
L 452.249937 212.053875 
" clip-path="url(#p6a7b6591ba)" style="fill: none; stroke: #888888; stroke-opacity: 0.15; stroke-width: 0.6; stroke-linecap: square"/>
     </g>
     <g id="line2d_28">
      <g>
       <use xlink:href="#mfbde9636e2" x="42.542188" y="212.053875" style="fill: #888888; stroke: #888888; stroke-width: 0.8"/>
      </g>
     </g>
     <g id="text_15">
      <!-- 2 -->
      <g style="fill: #888888" transform="translate(29.179688 215.853093) scale(0.1 -0.1)">
       <use xlink:href="#DejaVuSans-32"/>
      </g>
     </g>
    </g>
    <g id="ytick_6">
     <g id="line2d_29">
      <path d="M 42.542188 166.530791 
L 452.249937 166.530791 
" clip-path="url(#p6a7b6591ba)" style="fill: none; stroke: #888888; stroke-opacity: 0.15; stroke-width: 0.6; stroke-linecap: square"/>
     </g>
     <g id="line2d_30">
      <g>
       <use xlink:href="#mfbde9636e2" x="42.542188" y="166.530791" style="fill: #888888; stroke: #888888; stroke-width: 0.8"/>
      </g>
     </g>
     <g id="text_16">
      <!-- 3 -->
      <g style="fill: #888888" transform="translate(29.179688 170.33001) scale(0.1 -0.1)">
       <use xlink:href="#DejaVuSans-33"/>
      </g>
     </g>
    </g>
    <g id="ytick_7">
     <g id="line2d_31">
      <path d="M 42.542188 121.007708 
L 452.249937 121.007708 
" clip-path="url(#p6a7b6591ba)" style="fill: none; stroke: #888888; stroke-opacity: 0.15; stroke-width: 0.6; stroke-linecap: square"/>
     </g>
     <g id="line2d_32">
      <g>
       <use xlink:href="#mfbde9636e2" x="42.542188" y="121.007708" style="fill: #888888; stroke: #888888; stroke-width: 0.8"/>
      </g>
     </g>
     <g id="text_17">
      <!-- 4 -->
      <g style="fill: #888888" transform="translate(29.179688 124.806927) scale(0.1 -0.1)">
       <use xlink:href="#DejaVuSans-34"/>
      </g>
     </g>
    </g>
    <g id="ytick_8">
     <g id="line2d_33">
      <path d="M 42.542188 75.484625 
L 452.249937 75.484625 
" clip-path="url(#p6a7b6591ba)" style="fill: none; stroke: #888888; stroke-opacity: 0.15; stroke-width: 0.6; stroke-linecap: square"/>
     </g>
     <g id="line2d_34">
      <g>
       <use xlink:href="#mfbde9636e2" x="42.542188" y="75.484625" style="fill: #888888; stroke: #888888; stroke-width: 0.8"/>
      </g>
     </g>
     <g id="text_18">
      <!-- 5 -->
      <g style="fill: #888888" transform="translate(29.179688 79.283844) scale(0.1 -0.1)">
       <use xlink:href="#DejaVuSans-35"/>
      </g>
     </g>
    </g>
    <g id="ytick_9">
     <g id="line2d_35">
      <path d="M 42.542188 29.961542 
L 452.249937 29.961542 
" clip-path="url(#p6a7b6591ba)" style="fill: none; stroke: #888888; stroke-opacity: 0.15; stroke-width: 0.6; stroke-linecap: square"/>
     </g>
     <g id="line2d_36">
      <g>
       <use xlink:href="#mfbde9636e2" x="42.542188" y="29.961542" style="fill: #888888; stroke: #888888; stroke-width: 0.8"/>
      </g>
     </g>
     <g id="text_19">
      <!-- 6 -->
      <g style="fill: #888888" transform="translate(29.179688 33.76076) scale(0.1 -0.1)">
       <use xlink:href="#DejaVuSans-36"/>
      </g>
     </g>
    </g>
    <g id="text_20">
     <!-- $y$ -->
     <g style="fill: #888888" transform="translate(7.2 209.533875) scale(0.12 -0.12)">
      <defs>
       <path id="DejaVuSans-Oblique-79" d="M 1588 -325 
Q 1188 -997 936 -1164 
Q 684 -1331 294 -1331 
L -159 -1331 
L -63 -850 
L 269 -850 
Q 509 -850 678 -719 
Q 847 -588 1056 -206 
L 1234 128 
L 459 3500 
L 1069 3500 
L 1650 819 
L 3256 3500 
L 3859 3500 
L 1588 -325 
z
" transform="scale(0.015625)"/>
      </defs>
      <use xlink:href="#DejaVuSans-Oblique-79" transform="translate(0 0.3125)"/>
     </g>
    </g>
   </g>
   <g id="line2d_37">
    <path d="M 56.199112 298.05594 
L 65.326548 296.936073 
L 73.541239 295.717101 
L 81.299559 294.345278 
L 88.601508 292.82211 
L 94.990712 291.273458 
L 101.379917 289.491458 
L 107.31275 287.59715 
L 112.789211 285.615322 
L 117.8093 283.576851 
L 122.82939 281.300724 
L 127.393107 279.00203 
L 131.956825 276.460945 
L 136.520543 273.651907 
L 140.627888 270.871381 
L 144.735234 267.828315 
L 148.84258 264.497919 
L 152.949926 260.853064 
L 156.6009 257.32526 
L 160.251874 253.50287 
L 163.902848 249.361293 
L 167.553822 244.873877 
L 171.204797 240.011743 
L 174.855771 234.743599 
L 178.506745 229.035543 
L 181.701347 223.651324 
L 184.895949 217.875691 
L 188.090552 211.680191 
L 191.285154 205.034301 
L 194.479756 197.905279 
L 197.674359 190.258003 
L 200.868961 182.054798 
L 204.063563 173.25525 
L 207.258166 163.816007 
L 210.452768 153.690565 
L 213.64737 142.82904 
L 216.841973 131.177922 
L 220.036575 118.679811 
L 223.231177 105.273132 
L 226.42578 90.891836 
L 229.620382 75.465073 
L 232.814984 58.91684 
L 236.009587 41.16561 
L 238.291446 27.701436 
L 238.291446 27.701436 
" clip-path="url(#p6a7b6591ba)" style="fill: none; stroke: #cc0066; stroke-width: 2.2; stroke-linecap: square"/>
   </g>
   <g id="line2d_38">
    <path d="M 158.62605 439.475011 
L 159.361949 426.722408 
L 160.097849 416.77162 
L 160.833748 408.610571 
L 162.305547 395.688481 
L 163.777346 385.635069 
L 165.249145 377.405212 
L 166.720944 370.43785 
L 168.192743 364.396665 
L 169.664542 359.064066 
L 171.87224 352.0801 
L 174.079939 346.026441 
L 176.287637 340.684128 
L 178.495335 335.903425 
L 180.703034 331.577407 
L 183.646632 326.382931 
L 186.59023 321.720937 
L 189.533827 317.492335 
L 192.477425 313.623355 
L 196.156923 309.20815 
L 199.83642 305.183561 
L 203.515917 301.486055 
L 207.195415 298.066441 
L 211.610811 294.275557 
L 216.026208 290.77623 
L 221.177504 287.007083 
L 226.328801 283.526284 
L 231.480097 280.292835 
L 237.367293 276.858515 
L 243.254488 273.665209 
L 249.877584 270.321691 
L 257.236578 266.873754 
L 264.595573 263.668679 
L 272.690467 260.385626 
L 281.521261 257.055072 
L 291.087954 253.702349 
L 301.390546 250.348141 
L 311.693139 247.224207 
L 322.731631 244.099156 
L 335.241922 240.798839 
L 348.488112 237.547008 
L 362.470202 234.349238 
L 377.188191 231.209477 
L 393.37798 227.988815 
L 410.303667 224.848924 
L 428.701154 221.665022 
L 448.57044 218.45946 
L 452.249937 217.889835 
L 452.249937 217.889835 
" clip-path="url(#p6a7b6591ba)" style="fill: none; stroke: #4678c8; stroke-width: 2.2; stroke-linecap: square"/>
   </g>
   <g id="line2d_39">
    <path d="M 42.542187 416.907749 
L 452.249937 7.2 
" clip-path="url(#p6a7b6591ba)" style="fill: none; stroke-dasharray: 7.2,4.8; stroke-dashoffset: 0; stroke: #c86432; stroke-opacity: 0.8; stroke-width: 1.2"/>
   </g>
   <g id="line2d_40">
    <path d="M 42.542188 303.100041 
L 452.249937 303.100041 
" clip-path="url(#p6a7b6591ba)" style="fill: none; stroke: #888888; stroke-opacity: 0.4; stroke-width: 0.8; stroke-linecap: square"/>
   </g>
   <g id="line2d_41">
    <path d="M 156.349896 416.907749 
L 156.349896 7.2 
" clip-path="url(#p6a7b6591ba)" style="fill: none; stroke: #888888; stroke-opacity: 0.4; stroke-width: 0.8; stroke-linecap: square"/>
   </g>
   <g id="patch_3">
    <path d="M 42.542188 416.907749 
L 42.542188 7.2 
" style="fill: none; stroke: #888888; stroke-linejoin: miter; stroke-linecap: square"/>
   </g>
   <g id="patch_4">
    <path d="M 42.542187 416.907749 
L 452.249937 416.907749 
" style="fill: none; stroke: #888888; stroke-linejoin: miter; stroke-linecap: square"/>
   </g>
   <g id="text_21">
    <!-- (0, 1) -->
    <g style="fill: #888888" transform="translate(106.274504 241.643879) scale(0.11 -0.11)">
     <defs>
      <path id="DejaVuSans-28" d="M 1984 4856 
Q 1566 4138 1362 3434 
Q 1159 2731 1159 2009 
Q 1159 1288 1364 580 
Q 1569 -128 1984 -844 
L 1484 -844 
Q 1016 -109 783 600 
Q 550 1309 550 2009 
Q 550 2706 781 3412 
Q 1013 4119 1484 4856 
L 1984 4856 
z
" transform="scale(0.015625)"/>
      <path id="DejaVuSans-2c" d="M 750 794 
L 1409 794 
L 1409 256 
L 897 -744 
L 494 -744 
L 750 256 
L 750 794 
z
" transform="scale(0.015625)"/>
      <path id="DejaVuSans-20" transform="scale(0.015625)"/>
      <path id="DejaVuSans-29" d="M 513 4856 
L 1013 4856 
Q 1481 4119 1714 3412 
Q 1947 2706 1947 2009 
Q 1947 1309 1714 600 
Q 1481 -109 1013 -844 
L 513 -844 
Q 928 -128 1133 580 
Q 1338 1288 1338 2009 
Q 1338 2731 1133 3434 
Q 928 4138 513 4856 
z
" transform="scale(0.015625)"/>
     </defs>
     <use xlink:href="#DejaVuSans-28"/>
     <use xlink:href="#DejaVuSans-30" transform="translate(39.013672 0)"/>
     <use xlink:href="#DejaVuSans-2c" transform="translate(102.636719 0)"/>
     <use xlink:href="#DejaVuSans-20" transform="translate(134.423828 0)"/>
     <use xlink:href="#DejaVuSans-31" transform="translate(166.210938 0)"/>
     <use xlink:href="#DejaVuSans-29" transform="translate(229.833984 0)"/>
    </g>
   </g>
   <g id="text_22">
    <!-- (1, 0) -->
    <g style="fill: #888888" transform="translate(208.701441 334.966199) scale(0.11 -0.11)">
     <use xlink:href="#DejaVuSans-28"/>
     <use xlink:href="#DejaVuSans-31" transform="translate(39.013672 0)"/>
     <use xlink:href="#DejaVuSans-2c" transform="translate(102.636719 0)"/>
     <use xlink:href="#DejaVuSans-20" transform="translate(134.423828 0)"/>
     <use xlink:href="#DejaVuSans-30" transform="translate(166.210938 0)"/>
     <use xlink:href="#DejaVuSans-29" transform="translate(229.833984 0)"/>
    </g>
   </g>
   <g id="text_23">
    <!-- $y = e^x$ -->
    <g style="fill: #cc0066" transform="translate(231.462983 39.066158) scale(0.14 -0.14)">
     <defs>
      <path id="DejaVuSans-3d" d="M 678 2906 
L 4684 2906 
L 4684 2381 
L 678 2381 
L 678 2906 
z
M 678 1631 
L 4684 1631 
L 4684 1100 
L 678 1100 
L 678 1631 
z
" transform="scale(0.015625)"/>
      <path id="DejaVuSans-Oblique-65" d="M 3078 2063 
Q 3088 2113 3092 2166 
Q 3097 2219 3097 2272 
Q 3097 2653 2873 2875 
Q 2650 3097 2266 3097 
Q 1838 3097 1509 2826 
Q 1181 2556 1013 2059 
L 3078 2063 
z
M 3578 1613 
L 903 1613 
Q 884 1494 878 1425 
Q 872 1356 872 1306 
Q 872 872 1139 634 
Q 1406 397 1894 397 
Q 2269 397 2603 481 
Q 2938 566 3225 728 
L 3116 159 
Q 2806 34 2476 -28 
Q 2147 -91 1806 -91 
Q 1078 -91 686 257 
Q 294 606 294 1247 
Q 294 1794 489 2264 
Q 684 2734 1063 3103 
Q 1306 3334 1642 3459 
Q 1978 3584 2356 3584 
Q 2950 3584 3301 3228 
Q 3653 2872 3653 2272 
Q 3653 2128 3634 1964 
Q 3616 1800 3578 1613 
z
" transform="scale(0.015625)"/>
     </defs>
     <use xlink:href="#DejaVuSans-Oblique-79" transform="translate(0 0.4375)"/>
     <use xlink:href="#DejaVuSans-3d" transform="translate(78.662109 0.4375)"/>
     <use xlink:href="#DejaVuSans-Oblique-65" transform="translate(181.933594 0.4375)"/>
     <use xlink:href="#DejaVuSans-Oblique-78" transform="translate(248.106927 38.71875) scale(0.7)"/>
    </g>
   </g>
   <g id="text_24">
    <!-- $y = \ln x$ -->
    <g style="fill: #4678c8" transform="translate(397.622237 214.330029) scale(0.14 -0.14)">
     <defs>
      <path id="DejaVuSans-6c" d="M 603 4863 
L 1178 4863 
L 1178 0 
L 603 0 
L 603 4863 
z
" transform="scale(0.015625)"/>
      <path id="DejaVuSans-6e" d="M 3513 2113 
L 3513 0 
L 2938 0 
L 2938 2094 
Q 2938 2591 2744 2837 
Q 2550 3084 2163 3084 
Q 1697 3084 1428 2787 
Q 1159 2491 1159 1978 
L 1159 0 
L 581 0 
L 581 3500 
L 1159 3500 
L 1159 2956 
Q 1366 3272 1645 3428 
Q 1925 3584 2291 3584 
Q 2894 3584 3203 3211 
Q 3513 2838 3513 2113 
z
" transform="scale(0.015625)"/>
     </defs>
     <use xlink:href="#DejaVuSans-Oblique-79" transform="translate(0 0.015625)"/>
     <use xlink:href="#DejaVuSans-3d" transform="translate(78.662109 0.015625)"/>
     <use xlink:href="#DejaVuSans-6c" transform="translate(181.933594 0.015625)"/>
     <use xlink:href="#DejaVuSans-6e" transform="translate(209.716797 0.015625)"/>
     <use xlink:href="#DejaVuSans-Oblique-78" transform="translate(289.331379 0.015625)"/>
    </g>
   </g>
   <g id="text_25">
    <!-- $y = x$ -->
    <g style="fill: #c86432; opacity: 0.9" transform="translate(352.892017 94.175135) rotate(-36) scale(0.12 -0.12)">
     <use xlink:href="#DejaVuSans-Oblique-79" transform="translate(0 0.3125)"/>
     <use xlink:href="#DejaVuSans-3d" transform="translate(78.662109 0.3125)"/>
     <use xlink:href="#DejaVuSans-Oblique-78" transform="translate(181.933594 0.3125)"/>
    </g>
   </g>
   <g id="line2d_42">
    <defs>
     <path id="m3d728fafad" d="M 0 3 
C 0.795609 3 1.55874 2.683901 2.12132 2.12132 
C 2.683901 1.55874 3 0.795609 3 0 
C 3 -0.795609 2.683901 -1.55874 2.12132 -2.12132 
C 1.55874 -2.683901 0.795609 -3 0 -3 
C -0.795609 -3 -1.55874 -2.683901 -2.12132 -2.12132 
C -2.683901 -1.55874 -3 -0.795609 -3 0 
C -3 0.795609 -2.683901 1.55874 -2.12132 2.12132 
C -1.55874 2.683901 -0.795609 3 0 3 
z
" style="stroke: #cc0066"/>
    </defs>
    <g clip-path="url(#p6a7b6591ba)">
     <use xlink:href="#m3d728fafad" x="156.349896" y="257.576958" style="fill: #cc0066; stroke: #cc0066"/>
    </g>
   </g>
   <g id="line2d_43">
    <defs>
     <path id="m45a9f8e350" d="M 0 3 
C 0.795609 3 1.55874 2.683901 2.12132 2.12132 
C 2.683901 1.55874 3 0.795609 3 0 
C 3 -0.795609 2.683901 -1.55874 2.12132 -2.12132 
C 1.55874 -2.683901 0.795609 -3 0 -3 
C -0.795609 -3 -1.55874 -2.683901 -2.12132 -2.12132 
C -2.683901 -1.55874 -3 -0.795609 -3 0 
C -3 0.795609 -2.683901 1.55874 -2.12132 2.12132 
C -1.55874 2.683901 -0.795609 3 0 3 
z
" style="stroke: #4678c8"/>
    </defs>
    <g clip-path="url(#p6a7b6591ba)">
     <use xlink:href="#m45a9f8e350" x="201.872979" y="303.100041" style="fill: #4678c8; stroke: #4678c8"/>
    </g>
   </g>
  </g>
 </g>
 <defs>
  <clipPath id="p6a7b6591ba">
   <rect x="42.542188" y="7.2" width="409.707749" height="409.707749"/>
  </clipPath>
 </defs>
</svg>
