<?xml version="1.0" encoding="utf-8" standalone="no"?>
<!DOCTYPE svg PUBLIC "-//W3C//DTD SVG 1.1//EN"
  "http://www.w3.org/Graphics/SVG/1.1/DTD/svg11.dtd">
<svg xmlns:xlink="http://www.w3.org/1999/xlink" width="792pt" height="273.6pt" viewBox="0 0 792 273.6" xmlns="http://www.w3.org/2000/svg" version="1.1">
 <metadata>
  <rdf:RDF xmlns:dc="http://purl.org/dc/elements/1.1/" xmlns:cc="http://creativecommons.org/ns#" xmlns:rdf="http://www.w3.org/1999/02/22-rdf-syntax-ns#">
   <cc:Work>
    <dc:type rdf:resource="http://purl.org/dc/dcmitype/StillImage"/>
    <dc:date>2026-09-14T08:13:24.550861</dc:date>
    <dc:format>image/svg+xml</dc:format>
    <dc:creator>
     <cc:Agent>
      <dc:title>Matplotlib v3.11.0, https://matplotlib.org/</dc:title>
     </cc:Agent>
    </dc:creator>
   </cc:Work>
  </rdf:RDF>
 </metadata>
 <defs>
  <style type="text/css">*{stroke-linejoin: round; stroke-linecap: butt}</style>
 </defs>
 <g id="figure_1">
  <g id="patch_1">
   <path d="M 0 273.6 
L 792 273.6 
L 792 0 
L 0 0 
L 0 273.6 
z
" style="fill: none; opacity: 0"/>
  </g>
  <g id="axes_1">
   <g id="patch_2">
    <path d="M 53.722344 231.477656 
L 781.2 231.477656 
L 781.2 26.16 
L 53.722344 26.16 
L 53.722344 231.477656 
z
" style="fill: none"/>
   </g>
   <g id="matplotlib.axis_1">
    <g id="xtick_1">
     <g id="line2d_1">
      <defs>
       <path id="m019037c269" d="M 0 0 
L 0 3.5 
" style="stroke: #888888; stroke-width: 0.8"/>
      </defs>
      <g>
       <use xlink:href="#m019037c269" x="86.78951" y="231.477656" style="fill: #888888; stroke: #888888; stroke-width: 0.8"/>
      </g>
     </g>
     <g id="text_1">
      <!-- 0 -->
      <g style="fill: #888888" transform="translate(83.60826 246.075312) scale(0.1 -0.1)">
       <defs>
        <path id="DejaVuSans-13" d="M 2034 4250 
Q 1547 4250 1301 3770 
Q 1056 3291 1056 2328 
Q 1056 1369 1301 889 
Q 1547 409 2034 409 
Q 2525 409 2770 889 
Q 3016 1369 3016 2328 
Q 3016 3291 2770 3770 
Q 2525 4250 2034 4250 
z
M 2034 4750 
Q 2819 4750 3233 4129 
Q 3647 3509 3647 2328 
Q 3647 1150 3233 529 
Q 2819 -91 2034 -91 
Q 1250 -91 836 529 
Q 422 1150 422 2328 
Q 422 3509 836 4129 
Q 1250 4750 2034 4750 
z
" transform="scale(0.015625)"/>
       </defs>
       <use xlink:href="#DejaVuSans-13"/>
      </g>
     </g>
    </g>
    <g id="xtick_2">
     <g id="line2d_2">
      <g>
       <use xlink:href="#m019037c269" x="169.457425" y="231.477656" style="fill: #888888; stroke: #888888; stroke-width: 0.8"/>
      </g>
     </g>
     <g id="text_2">
      <!-- 5 -->
      <g style="fill: #888888" transform="translate(166.276175 246.075312) scale(0.1 -0.1)">
       <defs>
        <path id="DejaVuSans-18" d="M 691 4666 
L 3169 4666 
L 3169 4134 
L 1269 4134 
L 1269 2991 
Q 1406 3038 1543 3061 
Q 1681 3084 1819 3084 
Q 2600 3084 3056 2656 
Q 3513 2228 3513 1497 
Q 3513 744 3044 326 
Q 2575 -91 1722 -91 
Q 1428 -91 1123 -41 
Q 819 9 494 109 
L 494 744 
Q 775 591 1075 516 
Q 1375 441 1709 441 
Q 2250 441 2565 725 
Q 2881 1009 2881 1497 
Q 2881 1984 2565 2268 
Q 2250 2553 1709 2553 
Q 1456 2553 1204 2497 
Q 953 2441 691 2322 
L 691 4666 
z
" transform="scale(0.015625)"/>
       </defs>
       <use xlink:href="#DejaVuSans-18"/>
      </g>
     </g>
    </g>
    <g id="xtick_3">
     <g id="line2d_3">
      <g>
       <use xlink:href="#m019037c269" x="252.125341" y="231.477656" style="fill: #888888; stroke: #888888; stroke-width: 0.8"/>
      </g>
     </g>
     <g id="text_3">
      <!-- 10 -->
      <g style="fill: #888888" transform="translate(245.762841 246.075312) scale(0.1 -0.1)">
       <defs>
        <path id="DejaVuSans-14" d="M 794 531 
L 1825 531 
L 1825 4091 
L 703 3866 
L 703 4441 
L 1819 4666 
L 2450 4666 
L 2450 531 
L 3481 531 
L 3481 0 
L 794 0 
L 794 531 
z
" transform="scale(0.015625)"/>
       </defs>
       <use xlink:href="#DejaVuSans-14"/>
       <use xlink:href="#DejaVuSans-13" transform="translate(63.625 0)"/>
      </g>
     </g>
    </g>
    <g id="xtick_4">
     <g id="line2d_4">
      <g>
       <use xlink:href="#m019037c269" x="334.793256" y="231.477656" style="fill: #888888; stroke: #888888; stroke-width: 0.8"/>
      </g>
     </g>
     <g id="text_4">
      <!-- 15 -->
      <g style="fill: #888888" transform="translate(328.430756 246.075312) scale(0.1 -0.1)">
       <use xlink:href="#DejaVuSans-14"/>
       <use xlink:href="#DejaVuSans-18" transform="translate(63.625 0)"/>
      </g>
     </g>
    </g>
    <g id="xtick_5">
     <g id="line2d_5">
      <g>
       <use xlink:href="#m019037c269" x="417.461172" y="231.477656" style="fill: #888888; stroke: #888888; stroke-width: 0.8"/>
      </g>
     </g>
     <g id="text_5">
      <!-- 20 -->
      <g style="fill: #888888" transform="translate(411.098672 246.075312) scale(0.1 -0.1)">
       <defs>
        <path id="DejaVuSans-15" d="M 1228 531 
L 3431 531 
L 3431 0 
L 469 0 
L 469 531 
Q 828 903 1448 1529 
Q 2069 2156 2228 2338 
Q 2531 2678 2651 2914 
Q 2772 3150 2772 3378 
Q 2772 3750 2511 3984 
Q 2250 4219 1831 4219 
Q 1534 4219 1204 4116 
Q 875 4013 500 3803 
L 500 4441 
Q 881 4594 1212 4672 
Q 1544 4750 1819 4750 
Q 2544 4750 2975 4387 
Q 3406 4025 3406 3419 
Q 3406 3131 3298 2873 
Q 3191 2616 2906 2266 
Q 2828 2175 2409 1742 
Q 1991 1309 1228 531 
z
" transform="scale(0.015625)"/>
       </defs>
       <use xlink:href="#DejaVuSans-15"/>
       <use xlink:href="#DejaVuSans-13" transform="translate(63.625 0)"/>
      </g>
     </g>
    </g>
    <g id="xtick_6">
     <g id="line2d_6">
      <g>
       <use xlink:href="#m019037c269" x="500.129087" y="231.477656" style="fill: #888888; stroke: #888888; stroke-width: 0.8"/>
      </g>
     </g>
     <g id="text_6">
      <!-- 25 -->
      <g style="fill: #888888" transform="translate(493.766587 246.075312) scale(0.1 -0.1)">
       <use xlink:href="#DejaVuSans-15"/>
       <use xlink:href="#DejaVuSans-18" transform="translate(63.625 0)"/>
      </g>
     </g>
    </g>
    <g id="xtick_7">
     <g id="line2d_7">
      <g>
       <use xlink:href="#m019037c269" x="582.797003" y="231.477656" style="fill: #888888; stroke: #888888; stroke-width: 0.8"/>
      </g>
     </g>
     <g id="text_7">
      <!-- 30 -->
      <g style="fill: #888888" transform="translate(576.434503 246.075312) scale(0.1 -0.1)">
       <defs>
        <path id="DejaVuSans-16" d="M 2597 2516 
Q 3050 2419 3304 2112 
Q 3559 1806 3559 1356 
Q 3559 666 3084 287 
Q 2609 -91 1734 -91 
Q 1441 -91 1130 -33 
Q 819 25 488 141 
L 488 750 
Q 750 597 1062 519 
Q 1375 441 1716 441 
Q 2309 441 2620 675 
Q 2931 909 2931 1356 
Q 2931 1769 2642 2001 
Q 2353 2234 1838 2234 
L 1294 2234 
L 1294 2753 
L 1863 2753 
Q 2328 2753 2575 2939 
Q 2822 3125 2822 3475 
Q 2822 3834 2567 4026 
Q 2313 4219 1838 4219 
Q 1578 4219 1281 4162 
Q 984 4106 628 3988 
L 628 4550 
Q 988 4650 1302 4700 
Q 1616 4750 1894 4750 
Q 2613 4750 3031 4423 
Q 3450 4097 3450 3541 
Q 3450 3153 3228 2886 
Q 3006 2619 2597 2516 
z
" transform="scale(0.015625)"/>
       </defs>
       <use xlink:href="#DejaVuSans-16"/>
       <use xlink:href="#DejaVuSans-13" transform="translate(63.625 0)"/>
      </g>
     </g>
    </g>
    <g id="xtick_8">
     <g id="line2d_8">
      <g>
       <use xlink:href="#m019037c269" x="665.464918" y="231.477656" style="fill: #888888; stroke: #888888; stroke-width: 0.8"/>
      </g>
     </g>
     <g id="text_8">
      <!-- 35 -->
      <g style="fill: #888888" transform="translate(659.102418 246.075312) scale(0.1 -0.1)">
       <use xlink:href="#DejaVuSans-16"/>
       <use xlink:href="#DejaVuSans-18" transform="translate(63.625 0)"/>
      </g>
     </g>
    </g>
    <g id="xtick_9">
     <g id="line2d_9">
      <g>
       <use xlink:href="#m019037c269" x="748.132834" y="231.477656" style="fill: #888888; stroke: #888888; stroke-width: 0.8"/>
      </g>
     </g>
     <g id="text_9">
      <!-- 40 -->
      <g style="fill: #888888" transform="translate(741.770334 246.075312) scale(0.1 -0.1)">
       <defs>
        <path id="DejaVuSans-17" d="M 2419 4116 
L 825 1625 
L 2419 1625 
L 2419 4116 
z
M 2253 4666 
L 3047 4666 
L 3047 1625 
L 3713 1625 
L 3713 1100 
L 3047 1100 
L 3047 0 
L 2419 0 
L 2419 1100 
L 313 1100 
L 313 1709 
L 2253 4666 
z
" transform="scale(0.015625)"/>
       </defs>
       <use xlink:href="#DejaVuSans-17"/>
       <use xlink:href="#DejaVuSans-13" transform="translate(63.625 0)"/>
      </g>
     </g>
    </g>
    <g id="text_10">
     <!-- cycles since the driver was switched on -->
     <g style="fill: #888888" transform="translate(318.297109 260.076094) scale(0.1 -0.1)">
      <defs>
       <path id="DejaVuSans-46" d="M 3122 3366 
L 3122 2828 
Q 2878 2963 2633 3030 
Q 2388 3097 2138 3097 
Q 1578 3097 1268 2742 
Q 959 2388 959 1747 
Q 959 1106 1268 751 
Q 1578 397 2138 397 
Q 2388 397 2633 464 
Q 2878 531 3122 666 
L 3122 134 
Q 2881 22 2623 -34 
Q 2366 -91 2075 -91 
Q 1284 -91 818 406 
Q 353 903 353 1747 
Q 353 2603 823 3093 
Q 1294 3584 2113 3584 
Q 2378 3584 2631 3529 
Q 2884 3475 3122 3366 
z
" transform="scale(0.015625)"/>
       <path id="DejaVuSans-5c" d="M 2059 -325 
Q 1816 -950 1584 -1140 
Q 1353 -1331 966 -1331 
L 506 -1331 
L 506 -850 
L 844 -850 
Q 1081 -850 1212 -737 
Q 1344 -625 1503 -206 
L 1606 56 
L 191 3500 
L 800 3500 
L 1894 763 
L 2988 3500 
L 3597 3500 
L 2059 -325 
z
" transform="scale(0.015625)"/>
       <path id="DejaVuSans-4f" d="M 603 4863 
L 1178 4863 
L 1178 0 
L 603 0 
L 603 4863 
z
" transform="scale(0.015625)"/>
       <path id="DejaVuSans-48" d="M 3597 1894 
L 3597 1613 
L 953 1613 
Q 991 1019 1311 708 
Q 1631 397 2203 397 
Q 2534 397 2845 478 
Q 3156 559 3463 722 
L 3463 178 
Q 3153 47 2828 -22 
Q 2503 -91 2169 -91 
Q 1331 -91 842 396 
Q 353 884 353 1716 
Q 353 2575 817 3079 
Q 1281 3584 2069 3584 
Q 2775 3584 3186 3129 
Q 3597 2675 3597 1894 
z
M 3022 2063 
Q 3016 2534 2758 2815 
Q 2500 3097 2075 3097 
Q 1594 3097 1305 2825 
Q 1016 2553 972 2059 
L 3022 2063 
z
" transform="scale(0.015625)"/>
       <path id="DejaVuSans-56" d="M 2834 3397 
L 2834 2853 
Q 2591 2978 2328 3040 
Q 2066 3103 1784 3103 
Q 1356 3103 1142 2972 
Q 928 2841 928 2578 
Q 928 2378 1081 2264 
Q 1234 2150 1697 2047 
L 1894 2003 
Q 2506 1872 2764 1633 
Q 3022 1394 3022 966 
Q 3022 478 2636 193 
Q 2250 -91 1575 -91 
Q 1294 -91 989 -36 
Q 684 19 347 128 
L 347 722 
Q 666 556 975 473 
Q 1284 391 1588 391 
Q 1994 391 2212 530 
Q 2431 669 2431 922 
Q 2431 1156 2273 1281 
Q 2116 1406 1581 1522 
L 1381 1569 
Q 847 1681 609 1914 
Q 372 2147 372 2553 
Q 372 3047 722 3315 
Q 1072 3584 1716 3584 
Q 2034 3584 2315 3537 
Q 2597 3491 2834 3397 
z
" transform="scale(0.015625)"/>
       <path id="DejaVuSans-3" transform="scale(0.015625)"/>
       <path id="DejaVuSans-4c" d="M 603 3500 
L 1178 3500 
L 1178 0 
L 603 0 
L 603 3500 
z
M 603 4863 
L 1178 4863 
L 1178 4134 
L 603 4134 
L 603 4863 
z
" transform="scale(0.015625)"/>
       <path id="DejaVuSans-51" d="M 3513 2113 
L 3513 0 
L 2938 0 
L 2938 2094 
Q 2938 2591 2744 2837 
Q 2550 3084 2163 3084 
Q 1697 3084 1428 2787 
Q 1159 2491 1159 1978 
L 1159 0 
L 581 0 
L 581 3500 
L 1159 3500 
L 1159 2956 
Q 1366 3272 1645 3428 
Q 1925 3584 2291 3584 
Q 2894 3584 3203 3211 
Q 3513 2838 3513 2113 
z
" transform="scale(0.015625)"/>
       <path id="DejaVuSans-57" d="M 1172 4494 
L 1172 3500 
L 2356 3500 
L 2356 3053 
L 1172 3053 
L 1172 1153 
Q 1172 725 1289 603 
Q 1406 481 1766 481 
L 2356 481 
L 2356 0 
L 1766 0 
Q 1100 0 847 248 
Q 594 497 594 1153 
L 594 3053 
L 172 3053 
L 172 3500 
L 594 3500 
L 594 4494 
L 1172 4494 
z
" transform="scale(0.015625)"/>
       <path id="DejaVuSans-4b" d="M 3513 2113 
L 3513 0 
L 2938 0 
L 2938 2094 
Q 2938 2591 2744 2837 
Q 2550 3084 2163 3084 
Q 1697 3084 1428 2787 
Q 1159 2491 1159 1978 
L 1159 0 
L 581 0 
L 581 4863 
L 1159 4863 
L 1159 2956 
Q 1366 3272 1645 3428 
Q 1925 3584 2291 3584 
Q 2894 3584 3203 3211 
Q 3513 2838 3513 2113 
z
" transform="scale(0.015625)"/>
       <path id="DejaVuSans-47" d="M 2906 2969 
L 2906 4863 
L 3481 4863 
L 3481 0 
L 2906 0 
L 2906 525 
Q 2725 213 2448 61 
Q 2172 -91 1784 -91 
Q 1150 -91 751 415 
Q 353 922 353 1747 
Q 353 2572 751 3078 
Q 1150 3584 1784 3584 
Q 2172 3584 2448 3432 
Q 2725 3281 2906 2969 
z
M 947 1747 
Q 947 1113 1208 752 
Q 1469 391 1925 391 
Q 2381 391 2643 752 
Q 2906 1113 2906 1747 
Q 2906 2381 2643 2742 
Q 2381 3103 1925 3103 
Q 1469 3103 1208 2742 
Q 947 2381 947 1747 
z
" transform="scale(0.015625)"/>
       <path id="DejaVuSans-55" d="M 2631 2963 
Q 2534 3019 2420 3045 
Q 2306 3072 2169 3072 
Q 1681 3072 1420 2755 
Q 1159 2438 1159 1844 
L 1159 0 
L 581 0 
L 581 3500 
L 1159 3500 
L 1159 2956 
Q 1341 3275 1631 3429 
Q 1922 3584 2338 3584 
Q 2397 3584 2469 3576 
Q 2541 3569 2628 3553 
L 2631 2963 
z
" transform="scale(0.015625)"/>
       <path id="DejaVuSans-59" d="M 191 3500 
L 800 3500 
L 1894 563 
L 2988 3500 
L 3597 3500 
L 2284 0 
L 1503 0 
L 191 3500 
z
" transform="scale(0.015625)"/>
       <path id="DejaVuSans-5a" d="M 269 3500 
L 844 3500 
L 1563 769 
L 2278 3500 
L 2956 3500 
L 3675 769 
L 4391 3500 
L 4966 3500 
L 4050 0 
L 3372 0 
L 2619 2869 
L 1863 0 
L 1184 0 
L 269 3500 
z
" transform="scale(0.015625)"/>
       <path id="DejaVuSans-44" d="M 2194 1759 
Q 1497 1759 1228 1600 
Q 959 1441 959 1056 
Q 959 750 1161 570 
Q 1363 391 1709 391 
Q 2188 391 2477 730 
Q 2766 1069 2766 1631 
L 2766 1759 
L 2194 1759 
z
M 3341 1997 
L 3341 0 
L 2766 0 
L 2766 531 
Q 2569 213 2275 61 
Q 1981 -91 1556 -91 
Q 1019 -91 701 211 
Q 384 513 384 1019 
Q 384 1609 779 1909 
Q 1175 2209 1959 2209 
L 2766 2209 
L 2766 2266 
Q 2766 2663 2505 2880 
Q 2244 3097 1772 3097 
Q 1472 3097 1187 3025 
Q 903 2953 641 2809 
L 641 3341 
Q 956 3463 1253 3523 
Q 1550 3584 1831 3584 
Q 2591 3584 2966 3190 
Q 3341 2797 3341 1997 
z
" transform="scale(0.015625)"/>
       <path id="DejaVuSans-52" d="M 1959 3097 
Q 1497 3097 1228 2736 
Q 959 2375 959 1747 
Q 959 1119 1226 758 
Q 1494 397 1959 397 
Q 2419 397 2687 759 
Q 2956 1122 2956 1747 
Q 2956 2369 2687 2733 
Q 2419 3097 1959 3097 
z
M 1959 3584 
Q 2709 3584 3137 3096 
Q 3566 2609 3566 1747 
Q 3566 888 3137 398 
Q 2709 -91 1959 -91 
Q 1206 -91 779 398 
Q 353 888 353 1747 
Q 353 2609 779 3096 
Q 1206 3584 1959 3584 
z
" transform="scale(0.015625)"/>
      </defs>
      <use xlink:href="#DejaVuSans-46"/>
      <use xlink:href="#DejaVuSans-5c" transform="translate(54.984375 0)"/>
      <use xlink:href="#DejaVuSans-46" transform="translate(114.171875 0)"/>
      <use xlink:href="#DejaVuSans-4f" transform="translate(169.15625 0)"/>
      <use xlink:href="#DejaVuSans-48" transform="translate(196.9375 0)"/>
      <use xlink:href="#DejaVuSans-56" transform="translate(258.46875 0)"/>
      <use xlink:href="#DejaVuSans-3" transform="translate(310.5625 0)"/>
      <use xlink:href="#DejaVuSans-56" transform="translate(342.34375 0)"/>
      <use xlink:href="#DejaVuSans-4c" transform="translate(394.4375 0)"/>
      <use xlink:href="#DejaVuSans-51" transform="translate(422.21875 0)"/>
      <use xlink:href="#DejaVuSans-46" transform="translate(485.59375 0)"/>
      <use xlink:href="#DejaVuSans-48" transform="translate(540.578125 0)"/>
      <use xlink:href="#DejaVuSans-3" transform="translate(602.109375 0)"/>
      <use xlink:href="#DejaVuSans-57" transform="translate(633.890625 0)"/>
      <use xlink:href="#DejaVuSans-4b" transform="translate(673.09375 0)"/>
      <use xlink:href="#DejaVuSans-48" transform="translate(736.46875 0)"/>
      <use xlink:href="#DejaVuSans-3" transform="translate(798 0)"/>
      <use xlink:href="#DejaVuSans-47" transform="translate(829.78125 0)"/>
      <use xlink:href="#DejaVuSans-55" transform="translate(893.265625 0)"/>
      <use xlink:href="#DejaVuSans-4c" transform="translate(934.375 0)"/>
      <use xlink:href="#DejaVuSans-59" transform="translate(962.15625 0)"/>
      <use xlink:href="#DejaVuSans-48" transform="translate(1021.34375 0)"/>
      <use xlink:href="#DejaVuSans-55" transform="translate(1082.875 0)"/>
      <use xlink:href="#DejaVuSans-3" transform="translate(1123.984375 0)"/>
      <use xlink:href="#DejaVuSans-5a" transform="translate(1155.765625 0)"/>
      <use xlink:href="#DejaVuSans-44" transform="translate(1237.546875 0)"/>
      <use xlink:href="#DejaVuSans-56" transform="translate(1298.828125 0)"/>
      <use xlink:href="#DejaVuSans-3" transform="translate(1350.921875 0)"/>
      <use xlink:href="#DejaVuSans-56" transform="translate(1382.703125 0)"/>
      <use xlink:href="#DejaVuSans-5a" transform="translate(1434.796875 0)"/>
      <use xlink:href="#DejaVuSans-4c" transform="translate(1516.578125 0)"/>
      <use xlink:href="#DejaVuSans-57" transform="translate(1544.359375 0)"/>
      <use xlink:href="#DejaVuSans-46" transform="translate(1583.5625 0)"/>
      <use xlink:href="#DejaVuSans-4b" transform="translate(1638.546875 0)"/>
      <use xlink:href="#DejaVuSans-48" transform="translate(1701.921875 0)"/>
      <use xlink:href="#DejaVuSans-47" transform="translate(1763.453125 0)"/>
      <use xlink:href="#DejaVuSans-3" transform="translate(1826.9375 0)"/>
      <use xlink:href="#DejaVuSans-52" transform="translate(1858.71875 0)"/>
      <use xlink:href="#DejaVuSans-51" transform="translate(1919.90625 0)"/>
     </g>
    </g>
   </g>
   <g id="matplotlib.axis_2">
    <g id="ytick_1">
     <g id="line2d_10">
      <defs>
       <path id="ma0670ff37b" d="M 0 0 
L -3.5 0 
" style="stroke: #888888; stroke-width: 0.8"/>
      </defs>
      <g>
       <use xlink:href="#ma0670ff37b" x="53.722344" y="222.319643" style="fill: #888888; stroke: #888888; stroke-width: 0.8"/>
      </g>
     </g>
     <g id="text_11">
      <!-- −20 -->
      <g style="fill: #888888" transform="translate(25.617656 226.118471) scale(0.1 -0.1)">
       <defs>
        <path id="DejaVuSans-c9c" d="M 678 2272 
L 4684 2272 
L 4684 1741 
L 678 1741 
L 678 2272 
z
" transform="scale(0.015625)"/>
       </defs>
       <use xlink:href="#DejaVuSans-c9c"/>
       <use xlink:href="#DejaVuSans-15" transform="translate(83.796875 0)"/>
       <use xlink:href="#DejaVuSans-13" transform="translate(147.421875 0)"/>
      </g>
     </g>
    </g>
    <g id="ytick_2">
     <g id="line2d_11">
      <g>
       <use xlink:href="#ma0670ff37b" x="53.722344" y="198.944439" style="fill: #888888; stroke: #888888; stroke-width: 0.8"/>
      </g>
     </g>
     <g id="text_12">
      <!-- −15 -->
      <g style="fill: #888888" transform="translate(25.617656 202.743267) scale(0.1 -0.1)">
       <use xlink:href="#DejaVuSans-c9c"/>
       <use xlink:href="#DejaVuSans-14" transform="translate(83.796875 0)"/>
       <use xlink:href="#DejaVuSans-18" transform="translate(147.421875 0)"/>
      </g>
     </g>
    </g>
    <g id="ytick_3">
     <g id="line2d_12">
      <g>
       <use xlink:href="#ma0670ff37b" x="53.722344" y="175.569236" style="fill: #888888; stroke: #888888; stroke-width: 0.8"/>
      </g>
     </g>
     <g id="text_13">
      <!-- −10 -->
      <g style="fill: #888888" transform="translate(25.617656 179.368064) scale(0.1 -0.1)">
       <use xlink:href="#DejaVuSans-c9c"/>
       <use xlink:href="#DejaVuSans-14" transform="translate(83.796875 0)"/>
       <use xlink:href="#DejaVuSans-13" transform="translate(147.421875 0)"/>
      </g>
     </g>
    </g>
    <g id="ytick_4">
     <g id="line2d_13">
      <g>
       <use xlink:href="#ma0670ff37b" x="53.722344" y="152.194032" style="fill: #888888; stroke: #888888; stroke-width: 0.8"/>
      </g>
     </g>
     <g id="text_14">
      <!-- −5 -->
      <g style="fill: #888888" transform="translate(31.980156 155.99286) scale(0.1 -0.1)">
       <use xlink:href="#DejaVuSans-c9c"/>
       <use xlink:href="#DejaVuSans-18" transform="translate(83.796875 0)"/>
      </g>
     </g>
    </g>
    <g id="ytick_5">
     <g id="line2d_14">
      <g>
       <use xlink:href="#ma0670ff37b" x="53.722344" y="128.818828" style="fill: #888888; stroke: #888888; stroke-width: 0.8"/>
      </g>
     </g>
     <g id="text_15">
      <!-- 0 -->
      <g style="fill: #888888" transform="translate(40.359844 132.617656) scale(0.1 -0.1)">
       <use xlink:href="#DejaVuSans-13"/>
      </g>
     </g>
    </g>
    <g id="ytick_6">
     <g id="line2d_15">
      <g>
       <use xlink:href="#ma0670ff37b" x="53.722344" y="105.443624" style="fill: #888888; stroke: #888888; stroke-width: 0.8"/>
      </g>
     </g>
     <g id="text_16">
      <!-- 5 -->
      <g style="fill: #888888" transform="translate(40.359844 109.242453) scale(0.1 -0.1)">
       <use xlink:href="#DejaVuSans-18"/>
      </g>
     </g>
    </g>
    <g id="ytick_7">
     <g id="line2d_16">
      <g>
       <use xlink:href="#ma0670ff37b" x="53.722344" y="82.068421" style="fill: #888888; stroke: #888888; stroke-width: 0.8"/>
      </g>
     </g>
     <g id="text_17">
      <!-- 10 -->
      <g style="fill: #888888" transform="translate(33.997344 85.867249) scale(0.1 -0.1)">
       <use xlink:href="#DejaVuSans-14"/>
       <use xlink:href="#DejaVuSans-13" transform="translate(63.625 0)"/>
      </g>
     </g>
    </g>
    <g id="ytick_8">
     <g id="line2d_17">
      <g>
       <use xlink:href="#ma0670ff37b" x="53.722344" y="58.693217" style="fill: #888888; stroke: #888888; stroke-width: 0.8"/>
      </g>
     </g>
     <g id="text_18">
      <!-- 15 -->
      <g style="fill: #888888" transform="translate(33.997344 62.492045) scale(0.1 -0.1)">
       <use xlink:href="#DejaVuSans-14"/>
       <use xlink:href="#DejaVuSans-18" transform="translate(63.625 0)"/>
      </g>
     </g>
    </g>
    <g id="ytick_9">
     <g id="line2d_18">
      <g>
       <use xlink:href="#ma0670ff37b" x="53.722344" y="35.318013" style="fill: #888888; stroke: #888888; stroke-width: 0.8"/>
      </g>
     </g>
     <g id="text_19">
      <!-- 20 -->
      <g style="fill: #888888" transform="translate(33.997344 39.116841) scale(0.1 -0.1)">
       <use xlink:href="#DejaVuSans-15"/>
       <use xlink:href="#DejaVuSans-13" transform="translate(63.625 0)"/>
      </g>
     </g>
    </g>
    <g id="text_20">
     <!-- x ÷ static deflection -->
     <g style="fill: #888888" transform="translate(19.215313 179.265703) rotate(-90) scale(0.1 -0.1)">
      <defs>
       <path id="DejaVuSans-5b" d="M 3513 3500 
L 2247 1797 
L 3578 0 
L 2900 0 
L 1881 1375 
L 863 0 
L 184 0 
L 1544 1831 
L 300 3500 
L 978 3500 
L 1906 2253 
L 2834 3500 
L 3513 3500 
z
" transform="scale(0.015625)"/>
       <path id="DejaVuSans-b9" d="M 2297 3547 
L 3066 3547 
L 3066 2778 
L 2297 2778 
L 2297 3547 
z
M 2297 1234 
L 3066 1234 
L 3066 469 
L 2297 469 
L 2297 1234 
z
M 678 2272 
L 4684 2272 
L 4684 1741 
L 678 1741 
L 678 2272 
z
" transform="scale(0.015625)"/>
       <path id="DejaVuSans-13b0" d="M 1831 4863 
L 3431 4863 
L 3431 0 
L 2853 0 
L 2853 4384 
L 1825 4384 
Q 1516 4384 1395 4259 
Q 1275 4134 1275 3809 
L 1275 3500 
L 2222 3500 
L 2222 3053 
L 1275 3053 
L 1275 0 
L 697 0 
L 697 3053 
L 147 3053 
L 147 3500 
L 697 3500 
L 697 3744 
Q 697 4328 969 4595 
Q 1241 4863 1831 4863 
z
" transform="scale(0.015625)"/>
      </defs>
      <use xlink:href="#DejaVuSans-5b"/>
      <use xlink:href="#DejaVuSans-3" transform="translate(59.1875 0)"/>
      <use xlink:href="#DejaVuSans-b9" transform="translate(90.96875 0)"/>
      <use xlink:href="#DejaVuSans-3" transform="translate(174.765625 0)"/>
      <use xlink:href="#DejaVuSans-56" transform="translate(206.546875 0)"/>
      <use xlink:href="#DejaVuSans-57" transform="translate(258.640625 0)"/>
      <use xlink:href="#DejaVuSans-44" transform="translate(297.84375 0)"/>
      <use xlink:href="#DejaVuSans-57" transform="translate(359.125 0)"/>
      <use xlink:href="#DejaVuSans-4c" transform="translate(398.328125 0)"/>
      <use xlink:href="#DejaVuSans-46" transform="translate(426.109375 0)"/>
      <use xlink:href="#DejaVuSans-3" transform="translate(481.09375 0)"/>
      <use xlink:href="#DejaVuSans-47" transform="translate(512.875 0)"/>
      <use xlink:href="#DejaVuSans-48" transform="translate(576.359375 0)"/>
      <use xlink:href="#DejaVuSans-13b0" transform="translate(637.890625 0)"/>
      <use xlink:href="#DejaVuSans-48" transform="translate(700.875 0)"/>
      <use xlink:href="#DejaVuSans-46" transform="translate(762.40625 0)"/>
      <use xlink:href="#DejaVuSans-57" transform="translate(817.390625 0)"/>
      <use xlink:href="#DejaVuSans-4c" transform="translate(856.59375 0)"/>
      <use xlink:href="#DejaVuSans-52" transform="translate(884.375 0)"/>
      <use xlink:href="#DejaVuSans-51" transform="translate(945.5625 0)"/>
     </g>
    </g>
   </g>
   <g id="line2d_19">
    <path d="M 86.78951 128.818828 
L 87.340721 128.718066 
L 88.002175 128.35065 
L 88.884113 127.540796 
L 91.088958 125.30226 
L 91.750412 124.999423 
L 92.301623 124.993784 
L 92.852834 125.245053 
L 93.404046 125.766758 
L 94.065499 126.742532 
L 94.837195 128.306573 
L 96.04986 131.375378 
L 97.703494 135.522268 
L 98.47519 136.893824 
L 99.026401 137.495001 
L 99.46737 137.706018 
L 99.908339 137.655564 
L 100.349308 137.332333 
L 100.790277 136.733785 
L 101.341488 135.60933 
L 102.002942 133.754505 
L 102.88488 130.591735 
L 106.081906 118.292646 
L 106.743359 116.847534 
L 107.184328 116.279442 
L 107.625297 116.05942 
L 107.956024 116.132928 
L 108.286751 116.414394 
L 108.72772 117.111571 
L 109.278931 118.482502 
L 109.940385 120.795596 
L 110.822323 124.793595 
L 112.696441 134.796158 
L 113.798864 139.983306 
L 114.57056 142.621822 
L 115.121771 143.828786 
L 115.56274 144.333103 
L 115.893467 144.42714 
L 116.224194 144.272159 
L 116.55492 143.867659 
L 116.995889 142.946997 
L 117.547101 141.213376 
L 118.208554 138.369004 
L 119.090492 133.562945 
L 122.287518 115.007847 
L 122.948972 112.707631 
L 123.500183 111.540018 
L 123.941152 111.142987 
L 124.271879 111.170477 
L 124.602605 111.479157 
L 125.043575 112.322718 
L 125.594786 114.042246 
L 126.256239 116.987997 
L 127.138177 122.114469 
L 128.791811 133.501879 
L 130.004476 141.175607 
L 130.776172 144.874094 
L 131.437626 146.992066 
L 131.878595 147.783383 
L 132.209321 148.030515 
L 132.540048 147.974152 
L 132.870775 147.613566 
L 133.311744 146.667413 
L 133.862955 144.771948 
L 134.524409 141.558303 
L 135.406347 136.011082 
L 138.823857 112.737047 
L 139.485311 110.152845 
L 140.036522 108.88017 
L 140.367249 108.530866 
L 140.697976 108.501528 
L 141.028702 108.793813 
L 141.359429 109.404255 
L 141.800398 110.697599 
L 142.351609 113.034437 
L 143.123305 117.465243 
L 144.225728 125.434456 
L 146.430573 141.894941 
L 147.202269 146.126694 
L 147.863723 148.605272 
L 148.304692 149.578442 
L 148.635418 149.928745 
L 148.966145 149.946086 
L 149.296872 149.629319 
L 149.627599 148.982605 
L 150.068568 147.624077 
L 150.619779 145.182252 
L 151.391475 140.570894 
L 152.493898 132.308063 
L 154.698743 115.326069 
L 155.470439 110.98209 
L 156.131892 108.447654 
L 156.572861 107.458958 
L 156.903588 107.108377 
L 157.234315 107.100252 
L 157.565042 107.435349 
L 157.895768 108.108991 
L 158.336737 109.515681 
L 158.887949 112.034804 
L 159.659644 116.778722 
L 160.762067 125.256531 
L 162.966912 142.61866 
L 163.738608 147.043841 
L 164.400062 149.618282 
L 164.841031 150.617746 
L 165.171758 150.968089 
L 165.502484 150.969039 
L 165.833211 150.620117 
L 166.163938 149.92638 
L 166.604907 148.483975 
L 167.156118 145.907788 
L 167.927814 141.066375 
L 169.030237 132.431034 
L 171.235082 114.792004 
L 172.006778 110.308266 
L 172.668231 107.705384 
L 173.1092 106.698617 
L 173.439927 106.348881 
L 173.660412 106.312514 
L 173.991138 106.554041 
L 174.321865 107.147352 
L 174.762834 108.469232 
L 175.314046 110.920614 
L 176.085741 115.644336 
L 177.077922 123.319076 
L 179.613494 143.744691 
L 180.38519 148.063925 
L 180.936401 150.162772 
L 181.37737 151.174318 
L 181.708097 151.523184 
L 181.928581 151.556904 
L 182.149066 151.431011 
L 182.479793 150.944978 
L 182.920762 149.755186 
L 183.471973 147.446419 
L 184.133426 143.608105 
L 185.015365 137.0858 
L 188.21239 111.717727 
L 188.873844 108.463502 
L 189.425055 106.720677 
L 189.866024 106.019083 
L 190.196751 105.911579 
L 190.417235 106.040859 
L 190.747962 106.534066 
L 191.188931 107.737053 
L 191.740142 110.067414 
L 192.401596 113.93754 
L 193.283534 120.50843 
L 196.48056 146.027746 
L 197.142013 149.295463 
L 197.693225 151.043194 
L 198.134194 151.744557 
L 198.46492 151.849538 
L 198.685405 151.717504 
L 199.016132 151.218639 
L 199.457101 150.005481 
L 200.008312 147.658737 
L 200.669766 143.764756 
L 201.551704 137.157811 
L 204.748729 111.528943 
L 205.410183 108.252067 
L 205.961394 106.501406 
L 206.402363 105.800764 
L 206.73309 105.698047 
L 206.953574 105.832372 
L 207.284301 106.335782 
L 207.72527 107.556899 
L 208.276482 109.916219 
L 208.937935 113.828241 
L 209.819873 120.462087 
L 213.016899 146.17006 
L 213.678352 149.452934 
L 214.229564 151.205082 
L 214.670533 151.904649 
L 215.00126 152.005294 
L 215.221744 151.869016 
L 215.552471 151.361875 
L 215.99344 150.134415 
L 216.544651 147.765303 
L 217.206105 143.83949 
L 218.088043 137.18543 
L 221.285068 111.420588 
L 221.946522 108.134024 
L 222.497733 106.381438 
L 222.938702 105.683205 
L 223.269429 105.584491 
L 223.489914 105.722472 
L 223.82064 106.23275 
L 224.261609 107.46537 
L 224.812821 109.84224 
L 225.474274 113.778738 
L 226.356212 120.448126 
L 229.553238 146.253598 
L 230.214692 149.542169 
L 230.765903 151.294426 
L 231.206872 151.991138 
L 231.537599 152.088026 
L 231.758083 151.948522 
L 232.08881 151.435543 
L 232.529779 150.198629 
L 233.08099 147.815489 
L 233.742444 143.870574 
L 234.624382 137.189428 
L 237.821408 111.355186 
L 238.482861 108.065837 
L 239.034072 106.314468 
L 239.475041 105.619413 
L 239.805768 105.524276 
L 240.026253 105.665167 
L 240.35698 106.180528 
L 240.797949 107.421105 
L 241.34916 109.809428 
L 242.010613 113.761101 
L 242.892552 120.451396 
L 246.089577 146.305745 
L 246.751031 149.594975 
L 247.302242 151.34505 
L 247.743211 152.038349 
L 248.073938 152.131792 
L 248.294422 151.989611 
L 248.625149 151.4721 
L 249.066118 150.228323 
L 249.617329 147.835613 
L 250.278783 143.878393 
L 251.160721 137.180855 
L 254.357747 111.312728 
L 255.0192 108.024271 
L 255.570412 106.275788 
L 256.011381 105.584316 
L 256.342107 105.492525 
L 256.672834 105.768736 
L 257.003561 106.408606 
L 257.44453 107.809225 
L 257.995741 110.381709 
L 258.767437 115.305664 
L 259.86986 124.216201 
L 262.184947 143.522134 
L 262.956643 148.137081 
L 263.618097 150.791321 
L 264.059066 151.800422 
L 264.389792 152.135587 
L 264.610277 152.154763 
L 264.941004 151.87678 
L 265.271731 151.235022 
L 265.7127 149.831759 
L 266.263911 147.255885 
L 267.035607 142.327314 
L 268.138029 133.411195 
L 270.453117 114.100967 
L 271.224813 109.487257 
L 271.886266 106.835046 
L 272.327235 105.827719 
L 272.657962 105.494066 
L 272.878447 105.475971 
L 273.209173 105.75566 
L 273.5399 106.399203 
L 273.980869 107.804913 
L 274.53208 110.383849 
L 275.303776 115.316458 
L 276.406199 124.237195 
L 278.721286 143.549881 
L 279.492982 148.161975 
L 280.154436 150.811965 
L 280.595405 151.817462 
L 280.926132 152.149598 
L 281.146616 152.166628 
L 281.477343 151.885279 
L 281.80807 151.240028 
L 282.249039 149.832016 
L 282.80025 147.250258 
L 283.571946 142.314034 
L 284.674368 133.389381 
L 286.989456 114.07558 
L 287.761152 109.465379 
L 288.422605 106.817751 
L 288.863574 105.814125 
L 289.194301 105.483509 
L 289.414786 105.467534 
L 289.745512 105.750508 
L 290.076239 106.397411 
L 290.517208 107.80762 
L 291.06842 110.392025 
L 291.840115 115.331555 
L 292.942538 124.259607 
L 295.257626 143.573542 
L 296.029321 148.181647 
L 296.690775 150.826811 
L 297.131744 151.828536 
L 297.462471 152.157629 
L 297.682955 152.172558 
L 298.013682 151.887984 
L 298.344409 151.23947 
L 298.785378 149.827141 
L 299.336589 147.240218 
L 300.108285 142.297609 
L 301.210708 133.366533 
L 303.525795 114.053184 
L 304.297491 109.447323 
L 304.958945 106.804697 
L 305.399914 105.804895 
L 305.73064 105.477326 
L 305.951125 105.463439 
L 306.281852 105.749593 
L 306.612578 106.399688 
L 307.053547 107.81408 
L 307.604759 110.403428 
L 308.376455 115.348951 
L 309.478877 124.282774 
L 311.793965 143.595011 
L 312.565661 148.19852 
L 313.227114 150.838553 
L 313.668083 151.836415 
L 313.99881 152.162459 
L 314.219294 152.175309 
L 314.550021 151.887587 
L 314.880748 151.235934 
L 315.321717 149.81952 
L 315.872928 147.227816 
L 316.644624 142.279502 
L 317.747047 133.343133 
L 320.062134 114.032394 
L 320.83383 109.431316 
L 321.495284 106.793918 
L 321.936253 105.798006 
L 322.266979 105.473488 
L 322.487464 105.461672 
L 322.818191 105.750951 
L 323.148918 106.404147 
L 323.589887 107.822553 
L 324.141098 110.416561 
L 324.912794 115.367578 
L 326.015216 124.306344 
L 328.330304 143.615303 
L 329.102 148.21389 
L 329.763453 150.848626 
L 330.204422 151.842578 
L 330.535149 152.165569 
L 330.755634 152.176353 
L 331.08636 151.885525 
L 331.417087 151.230797 
L 331.858056 149.810423 
L 332.409267 147.214147 
L 333.180963 142.260493 
L 334.283386 133.319439 
L 336.598473 114.012469 
L 337.370169 109.416414 
L 338.031623 106.784364 
L 338.472592 105.792377 
L 338.803319 105.470913 
L 339.023803 105.461159 
L 339.35453 105.753532 
L 339.685257 106.409781 
L 340.126226 107.832108 
L 340.677437 110.430625 
L 341.449133 115.386868 
L 342.551556 124.33013 
L 344.866643 143.634958 
L 345.638339 148.228448 
L 346.299792 150.857797 
L 346.740761 151.847814 
L 347.071488 152.16775 
L 347.291973 152.176475 
L 347.6227 151.882561 
L 347.953426 151.224797 
L 348.394395 149.800529 
L 348.945607 147.199792 
L 349.717302 142.240995 
L 350.819725 133.295586 
L 353.134813 113.993013 
L 353.906508 109.402111 
L 354.567962 106.775475 
L 355.008931 105.787432 
L 355.339658 105.469024 
L 355.560142 105.461326 
L 355.890869 105.756778 
L 356.221596 106.416053 
L 356.662565 107.842253 
L 357.213776 110.445195 
L 357.985472 115.406519 
L 359.087895 124.354032 
L 361.402982 143.654265 
L 362.174678 148.242562 
L 362.836132 150.866476 
L 363.277101 151.852543 
L 363.607827 152.169423 
L 363.828312 152.176093 
L 364.159039 151.879106 
L 364.489765 151.218323 
L 364.930734 149.790199 
L 365.481946 147.185063 
L 366.253642 142.221231 
L 367.356064 133.271646 
L 369.671152 113.973816 
L 370.442848 109.388138 
L 371.104301 106.766952 
L 371.54527 105.782864 
L 371.875997 105.467512 
L 372.096481 105.461869 
L 372.427208 105.76039 
L 372.757935 106.422677 
L 373.198904 107.852721 
L 373.750115 110.460043 
L 374.521811 115.426368 
L 375.624234 124.377999 
L 377.939321 143.673379 
L 378.711017 148.256429 
L 379.372471 150.874882 
L 379.81344 151.856989 
L 380.144167 152.170813 
L 380.364651 152.17543 
L 380.695378 151.875376 
L 381.026105 151.211586 
L 381.467074 149.779626 
L 382.018285 147.170124 
L 382.789981 142.201319 
L 383.892403 133.247659 
L 386.207491 113.954765 
L 386.979187 109.374351 
L 387.530398 107.101701 
L 387.971367 105.963791 
L 388.302094 105.529503 
L 388.632821 105.462624 
L 388.963547 105.764209 
L 389.294274 106.4295 
L 389.735243 107.863373 
L 390.286455 110.47505 
L 391.05815 115.446329 
L 392.160573 124.402003 
L 394.365418 142.924086 
L 395.137114 147.710165 
L 395.798568 150.540543 
L 396.239537 151.676496 
L 396.570263 152.109264 
L 396.90099 152.174605 
L 397.231717 151.871489 
L 397.562444 151.204697 
L 398.003413 149.768913 
L 398.554624 147.155065 
L 399.32632 142.18132 
L 400.428743 133.223643 
L 402.633588 114.703779 
L 403.405284 109.920243 
L 404.066737 107.092547 
L 404.507706 105.958554 
L 404.838433 105.527307 
L 405.16916 105.463503 
L 405.499887 105.76815 
L 405.830613 106.43644 
L 406.271582 107.874134 
L 406.822794 110.49015 
L 407.59449 115.466357 
L 408.696912 124.426028 
L 410.901757 142.943656 
L 411.673453 147.724645 
L 412.334907 150.549656 
L 412.775876 151.681689 
L 413.106603 152.111415 
L 413.437329 152.173682 
L 413.768056 151.867505 
L 414.098783 151.197716 
L 414.539752 149.758114 
L 415.090963 147.139932 
L 415.862659 142.161268 
L 416.965082 133.19961 
L 419.169927 114.684232 
L 419.941623 109.905793 
L 420.603076 107.083469 
L 421.044045 105.953396 
L 421.374772 105.52519 
L 421.705499 105.464462 
L 422.036226 105.772168 
L 422.366952 106.443455 
L 422.807922 107.884964 
L 423.359133 110.50531 
L 424.130829 115.486428 
L 425.233251 124.450067 
L 427.438096 142.963185 
L 428.209792 147.739071 
L 428.871246 150.558707 
L 429.312215 151.686818 
L 429.642942 152.113503 
L 429.973669 152.172694 
L 430.304395 151.863458 
L 430.635122 151.190674 
L 431.076091 149.747259 
L 431.627302 147.12475 
L 432.398998 142.141181 
L 433.501421 133.175567 
L 435.706266 114.664719 
L 436.477962 109.891388 
L 437.139415 107.074441 
L 437.580385 105.948291 
L 437.911111 105.523128 
L 438.241838 105.465474 
L 438.572565 105.776239 
L 438.903292 106.450521 
L 439.344261 107.895841 
L 439.895472 110.520511 
L 440.667168 115.506528 
L 441.76959 124.474115 
L 443.974436 142.982684 
L 444.746131 147.753458 
L 445.407585 150.567714 
L 445.848554 151.691902 
L 446.179281 152.115544 
L 446.510008 152.17166 
L 446.840734 151.859366 
L 447.171461 151.183588 
L 447.61243 149.736363 
L 448.163642 147.109533 
L 448.935337 142.121069 
L 450.03776 133.151515 
L 452.242605 114.645231 
L 453.014301 109.877017 
L 453.675755 107.065452 
L 454.116724 105.943227 
L 454.44745 105.521106 
L 454.778177 105.466527 
L 455.108904 105.78035 
L 455.439631 106.457625 
L 455.8806 107.906754 
L 456.431811 110.535743 
L 457.203507 115.526651 
L 458.30593 124.49817 
L 460.510775 143.002161 
L 461.282471 147.767815 
L 461.943924 150.576687 
L 462.384893 151.696949 
L 462.71562 152.117548 
L 463.046347 152.17059 
L 463.377074 151.855238 
L 463.7078 151.176467 
L 464.148769 149.725435 
L 464.699981 147.094288 
L 465.471677 142.100937 
L 466.574099 133.127456 
L 468.778944 114.625764 
L 469.55064 109.862673 
L 470.212094 107.056495 
L 470.653063 105.938196 
L 470.98379 105.519118 
L 471.314516 105.467614 
L 471.645243 105.784494 
L 471.97597 106.464761 
L 472.416939 107.917696 
L 472.96815 110.551001 
L 473.739846 115.546792 
L 474.842269 124.522232 
L 477.047114 143.021618 
L 477.81881 147.782145 
L 478.480263 150.58563 
L 478.921232 151.701965 
L 479.251959 152.119521 
L 479.582686 152.169488 
L 479.913413 151.851079 
L 480.24414 151.169316 
L 480.685109 149.714479 
L 481.23632 147.079018 
L 482.008016 142.080787 
L 483.110438 133.103392 
L 485.315284 114.606316 
L 486.086979 109.848354 
L 486.748433 107.047565 
L 487.189402 105.933194 
L 487.520129 105.51716 
L 487.850856 105.46873 
L 488.181582 105.788668 
L 488.512309 106.471926 
L 488.953278 107.928666 
L 489.504489 110.566282 
L 490.276185 115.56695 
L 491.378608 124.546299 
L 493.583453 143.041058 
L 494.355149 147.796453 
L 495.016603 150.594546 
L 495.457572 151.706953 
L 495.788298 152.121465 
L 496.119025 152.168357 
L 496.449752 151.846891 
L 496.780479 151.162138 
L 497.221448 149.703497 
L 497.772659 147.063726 
L 498.544355 142.060621 
L 499.646777 133.079322 
L 501.851623 114.586885 
L 502.623319 109.834058 
L 503.284772 107.038662 
L 503.725741 105.928219 
L 504.056468 105.51523 
L 504.387195 105.469875 
L 504.717921 105.792869 
L 505.048648 106.479117 
L 505.489617 107.93966 
L 506.040829 110.581584 
L 506.812524 115.587124 
L 507.914947 124.570371 
L 510.119792 143.060481 
L 510.891488 147.810738 
L 511.552942 150.603436 
L 511.993911 151.711914 
L 512.324637 152.123381 
L 512.655364 152.167199 
L 512.986091 151.842677 
L 513.316818 151.154934 
L 513.757787 149.69249 
L 514.308998 147.048413 
L 515.080694 142.040439 
L 516.183117 133.055248 
L 518.387962 114.56747 
L 519.159658 109.819784 
L 519.821111 107.029784 
L 520.26208 105.923271 
L 520.592807 105.513326 
L 520.923534 105.471046 
L 521.254261 105.797096 
L 521.584987 106.486334 
L 522.025956 107.950678 
L 522.577168 110.596908 
L 523.348864 115.607314 
L 524.451286 124.594448 
L 526.656131 143.079888 
L 527.427827 147.825001 
L 528.089281 150.612302 
L 528.53025 151.71685 
L 528.860977 152.125272 
L 529.191703 152.166015 
L 529.52243 151.838436 
L 529.853157 151.147704 
L 530.294126 149.681461 
L 530.845337 147.033079 
L 531.617033 142.020243 
L 532.719456 133.031168 
L 534.924301 114.548071 
L 535.695997 109.805531 
L 536.35745 107.02093 
L 536.798419 105.918349 
L 537.129146 105.511449 
L 537.459873 105.472243 
L 537.7906 105.80135 
L 538.121327 106.493577 
L 538.562296 107.961719 
L 539.113507 110.612252 
L 539.885203 115.627517 
L 540.987625 124.618529 
L 543.192471 143.099279 
L 543.964166 147.839244 
L 544.62562 150.621144 
L 545.066589 151.721759 
L 545.397316 152.127136 
L 545.728043 152.164804 
L 546.058769 151.83417 
L 546.389496 151.140449 
L 546.830465 149.670407 
L 547.381676 147.017725 
L 548.153372 142.000031 
L 549.255795 133.007084 
L 551.46064 114.528688 
L 552.232336 109.7913 
L 552.89379 107.012101 
L 553.334759 105.913452 
L 553.665485 105.509598 
L 553.996212 105.473467 
L 554.326939 105.805629 
L 554.657666 106.500844 
L 555.098635 107.972784 
L 555.649846 110.627616 
L 556.421542 115.647736 
L 557.523965 124.642616 
L 559.72881 143.118654 
L 560.500506 147.853465 
L 561.161959 150.629961 
L 561.602928 151.726643 
L 561.933655 152.128974 
L 562.264382 152.163568 
L 562.595109 151.829878 
L 562.925835 151.13317 
L 563.366804 149.659331 
L 563.918016 147.00235 
L 564.689711 141.979805 
L 565.792134 132.982996 
L 567.996979 114.509321 
L 568.768675 109.777089 
L 569.430129 107.003296 
L 569.871098 105.90858 
L 570.201825 105.507772 
L 570.422309 105.444722 
L 570.642794 105.545678 
L 570.97352 106.002763 
L 571.414489 107.170053 
L 571.965701 109.476642 
L 572.627154 113.349238 
L 573.509092 119.973993 
L 576.81636 146.666999 
L 577.477814 149.860534 
L 578.029025 151.517605 
L 578.469994 152.130787 
L 578.690479 152.192813 
L 578.910963 152.090832 
L 579.24169 151.632229 
L 579.682659 150.462983 
L 580.23387 148.154138 
L 580.895324 144.279239 
L 581.777262 137.652331 
L 585.08453 110.962755 
L 585.745983 107.771794 
L 586.297195 106.117131 
L 586.627921 105.597886 
L 586.958648 105.444972 
L 587.179133 105.547976 
L 587.509859 106.008098 
L 587.950829 107.179299 
L 588.50204 109.4904 
L 589.163493 113.3676 
L 590.045432 119.99666 
L 593.352699 146.682799 
L 594.014153 149.871185 
L 594.565364 151.523439 
L 594.896091 152.041171 
L 595.226818 152.19255 
L 595.447302 152.088522 
L 595.778029 151.626881 
L 596.218998 150.453725 
L 596.770209 148.140369 
L 597.431663 144.260868 
L 598.313601 137.629659 
L 601.620869 110.946965 
L 602.282322 107.761154 
L 602.833534 106.111309 
L 603.164261 105.595091 
L 603.494987 105.445247 
L 603.715472 105.550299 
L 604.046199 106.013459 
L 604.487168 107.188569 
L 605.038379 109.504179 
L 605.699833 113.38598 
L 606.581771 120.019336 
L 609.889038 146.698579 
L 610.550492 149.881814 
L 611.101703 151.529249 
L 611.43243 152.043953 
L 611.763157 152.192262 
L 611.983641 152.086185 
L 612.314368 151.621508 
L 612.755337 150.444444 
L 613.306549 148.126579 
L 613.968002 144.24248 
L 614.84994 137.606978 
L 618.157208 110.931194 
L 618.818662 107.750537 
L 619.369873 106.105512 
L 619.7006 105.592321 
L 620.031327 105.445548 
L 620.251811 105.552649 
L 620.582538 106.018844 
L 621.023507 107.197862 
L 621.574718 109.51798 
L 622.236172 113.404376 
L 623.11811 120.042023 
L 626.425378 146.71434 
L 627.086831 149.892419 
L 627.638043 151.535034 
L 627.968769 152.046711 
L 628.299496 152.191948 
L 628.519981 152.083824 
L 628.850707 151.61611 
L 629.291676 150.435138 
L 629.842888 148.112769 
L 630.504341 144.224075 
L 631.386279 137.584287 
L 634.693547 110.915444 
L 635.355001 107.739943 
L 635.906212 106.099739 
L 636.236939 105.589577 
L 636.567666 105.445875 
L 636.78815 105.555023 
L 637.118877 106.024254 
L 637.559846 107.207179 
L 638.111057 109.531801 
L 638.772511 113.42279 
L 639.654449 120.064719 
L 642.961717 146.730081 
L 643.62317 149.903001 
L 644.174382 151.540794 
L 644.505108 152.049442 
L 644.835835 152.191608 
L 645.05632 152.081436 
L 645.387047 151.610687 
L 645.828016 150.425809 
L 646.379227 148.098936 
L 647.04068 144.205653 
L 647.922619 137.561586 
L 651.229886 110.899713 
L 651.89134 107.729373 
L 652.442551 106.093992 
L 652.773278 105.586858 
L 653.104005 105.446228 
L 653.324489 105.557423 
L 653.655216 106.02969 
L 654.096185 107.21652 
L 654.647396 109.545644 
L 655.30885 113.44122 
L 656.190788 120.087424 
L 659.498056 146.745802 
L 660.15951 149.91356 
L 660.710721 151.546529 
L 661.041448 152.052148 
L 661.372174 152.191242 
L 661.592659 152.079023 
L 661.923386 151.60524 
L 662.364355 150.416457 
L 662.915566 148.085083 
L 663.57702 144.187215 
L 664.458958 137.538875 
L 667.766226 110.884001 
L 668.427679 107.718825 
L 668.97889 106.088269 
L 669.309617 105.584164 
L 669.640344 105.446606 
L 669.860828 105.559849 
L 670.191555 106.03515 
L 670.632524 107.225885 
L 671.183736 109.559508 
L 671.845189 113.459667 
L 672.727127 120.11014 
L 676.034395 146.761503 
L 676.695849 149.924096 
L 677.24706 151.552239 
L 677.577787 152.054829 
L 677.908514 152.190851 
L 678.128998 152.076585 
L 678.459725 151.599767 
L 678.900694 150.40708 
L 679.451905 148.071209 
L 680.113359 144.168759 
L 680.995297 137.516155 
L 684.302565 110.868309 
L 684.964018 107.708301 
L 685.51523 106.082572 
L 685.845956 105.581496 
L 686.176683 105.44701 
L 686.397168 105.5623 
L 686.727894 106.040635 
L 687.168863 107.235273 
L 687.720075 109.573392 
L 688.381528 113.478131 
L 689.263466 120.132864 
L 692.570734 146.777185 
L 693.232188 149.934609 
L 693.783399 151.557924 
L 694.114126 152.057484 
L 694.444853 152.190435 
L 694.665337 152.074121 
L 694.996064 151.594269 
L 695.437033 150.39768 
L 695.988244 148.057313 
L 696.649698 144.150286 
L 697.531636 137.493426 
L 700.838904 110.852637 
L 701.500357 107.6978 
L 702.051569 106.076899 
L 702.382295 105.578854 
L 702.713022 105.447439 
L 702.933507 105.564777 
L 703.264234 106.046146 
L 703.705203 107.244685 
L 704.256414 109.587299 
L 704.917867 113.496612 
L 705.799806 120.155599 
L 709.107073 146.792848 
L 709.768527 149.945098 
L 710.319738 151.563584 
L 710.650465 152.060114 
L 710.981192 152.189992 
L 711.201676 152.071632 
L 711.532403 151.588746 
L 711.973372 150.388256 
L 712.524583 148.043397 
L 713.186037 144.131797 
L 714.067975 137.470687 
L 717.375243 110.836985 
L 718.036697 107.687322 
L 718.587908 106.071251 
L 718.918635 105.576237 
L 719.249361 105.447895 
L 719.469846 105.567279 
L 719.800573 106.051681 
L 720.241542 107.254121 
L 720.792753 109.601226 
L 721.454207 113.51511 
L 722.336145 120.178342 
L 725.643413 146.80849 
L 726.304866 149.955565 
L 726.856077 151.569219 
L 727.186804 152.062718 
L 727.517531 152.189525 
L 727.738016 152.069117 
L 728.068742 151.583198 
L 728.509711 150.378809 
L 729.060923 148.029459 
L 729.722376 144.113291 
L 730.604314 137.447938 
L 733.911582 110.821352 
L 734.573036 107.676867 
L 735.124247 106.065629 
L 735.454974 105.573646 
L 735.785701 105.448375 
L 736.006185 105.569806 
L 736.336912 106.057241 
L 736.777881 107.26358 
L 737.329092 109.615174 
L 737.990546 113.533625 
L 738.872484 120.201096 
L 742.179752 146.824113 
L 742.841205 149.966008 
L 743.392417 151.57483 
L 743.723143 152.065297 
L 744.05387 152.189031 
L 744.274355 152.066576 
L 744.605081 151.577625 
L 745.04605 150.369338 
L 745.597262 148.0155 
L 746.258715 144.094768 
L 747.140653 137.42518 
L 748.132834 128.818828 
L 748.132834 128.818828 
" clip-path="url(#peb0eff7ef8)" style="fill: none; stroke: #f59e0b; stroke-width: 1.1; stroke-linecap: square"/>
   </g>
   <g id="line2d_20">
    <path d="M 86.78951 128.818828 
L 89.766051 126.318777 
L 92.852834 124.008176 
L 96.160102 121.815571 
L 99.577612 119.821565 
L 103.105365 118.017628 
L 106.853601 116.34827 
L 110.822323 114.821632 
L 115.121771 113.40799 
L 119.751946 112.122961 
L 124.82309 110.952179 
L 130.335203 109.911119 
L 136.50877 108.976869 
L 143.454032 108.157231 
L 151.391475 107.450613 
L 160.651825 106.855217 
L 171.896535 106.364335 
L 186.007545 105.98218 
L 204.969214 105.705613 
L 233.632202 105.531774 
L 290.076239 105.453944 
L 600.297962 105.443625 
L 748.132834 105.443624 
L 748.132834 105.443624 
" clip-path="url(#peb0eff7ef8)" style="fill: none; stroke-dasharray: 3.33,1.44; stroke-dashoffset: 0; stroke: #f59e0b; stroke-width: 0.9"/>
   </g>
   <g id="line2d_21">
    <path d="M 86.78951 128.818828 
L 89.766051 131.318879 
L 92.852834 133.62948 
L 96.160102 135.822086 
L 99.577612 137.816091 
L 103.105365 139.620028 
L 106.853601 141.289386 
L 110.822323 142.816024 
L 115.121771 144.229667 
L 119.751946 145.514695 
L 124.82309 146.685477 
L 130.335203 147.726537 
L 136.50877 148.660788 
L 143.454032 149.480425 
L 151.391475 150.187043 
L 160.651825 150.782439 
L 171.896535 151.273321 
L 186.007545 151.655476 
L 204.969214 151.932044 
L 233.632202 152.105882 
L 290.076239 152.183713 
L 600.297962 152.194032 
L 748.132834 152.194032 
L 748.132834 152.194032 
" clip-path="url(#peb0eff7ef8)" style="fill: none; stroke-dasharray: 3.33,1.44; stroke-dashoffset: 0; stroke: #f59e0b; stroke-width: 0.9"/>
   </g>
   <g id="line2d_22">
    <path d="M 86.78951 128.818828 
L 87.340721 128.717273 
L 88.002175 128.342528 
L 88.773871 127.623291 
L 91.419685 124.866412 
L 91.970896 124.679068 
L 92.522108 124.750094 
L 93.073319 125.111072 
L 93.62453 125.775665 
L 94.285984 126.963957 
L 95.05768 128.822527 
L 96.270344 132.404175 
L 97.813736 136.874042 
L 98.585432 138.471313 
L 99.136643 139.16602 
L 99.577612 139.399735 
L 99.908339 139.36946 
L 100.239066 139.154423 
L 100.680035 138.573526 
L 101.231246 137.376009 
L 101.8927 135.283057 
L 102.664396 132.061431 
L 103.87706 125.890923 
L 105.640937 116.993583 
L 106.412632 114.150693 
L 106.963844 112.795392 
L 107.404813 112.190904 
L 107.73554 112.041325 
L 108.066266 112.163562 
L 108.396993 112.563097 
L 108.837962 113.527921 
L 109.389173 115.409929 
L 110.050627 118.582089 
L 110.932565 124.081129 
L 112.586199 136.331283 
L 113.798864 144.569291 
L 114.57056 148.460923 
L 115.121771 150.31012 
L 115.56274 151.141146 
L 115.893467 151.358701 
L 116.113951 151.304208 
L 116.444678 150.918988 
L 116.775405 150.16941 
L 117.216374 148.613289 
L 117.767585 145.818072 
L 118.539281 140.505364 
L 119.531461 131.900252 
L 122.067033 108.991529 
L 122.838729 104.25791 
L 123.389941 102.067935 
L 123.83091 101.131459 
L 124.161636 100.933797 
L 124.382121 101.04834 
L 124.712848 101.592375 
L 125.153817 103.007082 
L 125.705028 105.843318 
L 126.366482 110.674734 
L 127.24842 119.078013 
L 128.902054 137.808769 
L 130.114719 150.478803 
L 130.886414 156.577774 
L 131.437626 159.587961 
L 131.878595 161.061572 
L 132.209321 161.583382 
L 132.429806 161.64479 
L 132.650291 161.47421 
L 132.981017 160.782588 
L 133.421986 159.057167 
L 133.973198 155.663776 
L 134.634651 149.951852 
L 135.516589 140.112514 
L 137.390708 115.575261 
L 138.49313 102.808001 
L 139.264826 96.232288 
L 139.816037 93.144735 
L 140.257007 91.769661 
L 140.587733 91.413218 
L 140.808218 91.504024 
L 141.028702 91.859014 
L 141.359429 92.884413 
L 141.800398 95.152319 
L 142.351609 99.356833 
L 143.013063 106.186552 
L 144.005243 119.205776 
L 146.871542 159.143595 
L 147.532996 165.224149 
L 148.084207 168.613418 
L 148.525176 170.098697 
L 148.855903 170.459623 
L 149.076387 170.33468 
L 149.296872 169.916243 
L 149.627599 168.742017 
L 150.068568 166.180044 
L 150.619779 161.467595 
L 151.281233 153.854667 
L 152.273413 139.415518 
L 155.02947 96.813606 
L 155.801165 88.880578 
L 156.352377 85.213513 
L 156.793346 83.627306 
L 157.01383 83.30468 
L 157.234315 83.301341 
L 157.454799 83.618719 
L 157.785526 84.693678 
L 158.226495 87.222665 
L 158.777706 92.053464 
L 159.43916 100.033494 
L 160.321098 113.567519 
L 163.628366 167.547018 
L 164.289819 173.828777 
L 164.730788 176.493293 
L 165.061515 177.627039 
L 165.282 177.957675 
L 165.502484 177.943576 
L 165.722969 177.583543 
L 166.053696 176.39825 
L 166.494665 173.639095 
L 167.045876 168.397702 
L 167.70733 159.770935 
L 168.589268 145.184842 
L 171.786293 88.726665 
L 172.447747 81.590048 
L 172.998958 77.854965 
L 173.329685 76.666626 
L 173.550169 76.329043 
L 173.770654 76.359718 
L 173.991138 76.759637 
L 174.321865 78.047596 
L 174.762834 81.02038 
L 175.314046 86.642308 
L 175.975499 95.867909 
L 176.857437 111.427434 
L 180.054463 171.367202 
L 180.715916 178.899424 
L 181.267128 182.824761 
L 181.597854 184.062906 
L 181.818339 184.406466 
L 182.038823 184.360022 
L 182.259308 183.922788 
L 182.590035 182.53927 
L 183.031004 179.368169 
L 183.582215 173.393514 
L 184.243669 163.613386 
L 185.235849 144.897837 
L 188.102148 87.270373 
L 188.873844 77.200549 
L 189.425055 72.626826 
L 189.866024 70.715957 
L 190.086509 70.367307 
L 190.306993 70.428764 
L 190.527478 70.900925 
L 190.858204 72.37342 
L 191.299173 75.728664 
L 191.850385 82.030315 
L 192.511838 92.323988 
L 193.504019 111.985036 
L 196.370317 172.328864 
L 197.142013 182.832951 
L 197.693225 187.589759 
L 198.134194 189.565003 
L 198.354678 189.917933 
L 198.575163 189.842171 
L 198.795647 189.337299 
L 199.126374 187.781928 
L 199.567343 184.255662 
L 200.118554 177.650821 
L 200.780008 166.881508 
L 201.772188 146.345541 
L 204.638487 83.491937 
L 205.410183 72.58759 
L 205.961394 67.662507 
L 206.402363 65.628574 
L 206.622848 65.272103 
L 206.843332 65.361506 
L 207.063817 65.897033 
L 207.394543 67.529627 
L 207.835513 71.21477 
L 208.386724 78.100774 
L 209.048177 89.310667 
L 210.040358 110.656286 
L 212.906657 175.828712 
L 213.678352 187.101906 
L 214.229564 192.181595 
L 214.670533 194.268978 
L 214.891017 194.628312 
L 215.00126 194.634903 
L 215.221744 194.301364 
L 215.552471 192.938657 
L 215.99344 189.545416 
L 216.544651 182.904508 
L 217.206105 171.800413 
L 218.088043 152.835683 
L 221.395311 76.464458 
L 222.056764 67.374552 
L 222.607976 62.706656 
L 222.938702 61.279066 
L 223.159187 60.917486 
L 223.269429 60.915285 
L 223.489914 61.268552 
L 223.82064 62.687804 
L 224.261609 66.204916 
L 224.812821 73.072796 
L 225.474274 84.54047 
L 226.356212 104.104309 
L 229.66348 182.72178 
L 230.324934 192.05336 
L 230.876145 196.835138 
L 231.206872 198.290773 
L 231.427356 198.654036 
L 231.537599 198.651981 
L 231.758083 198.280082 
L 232.08881 196.807977 
L 232.529779 193.175607 
L 233.08099 186.09705 
L 233.742444 174.292404 
L 234.624382 154.173931 
L 237.93165 73.481367 
L 238.593103 63.927365 
L 239.144315 59.041231 
L 239.475041 57.560246 
L 239.695526 57.195817 
L 239.805768 57.202 
L 240.026253 57.591509 
L 240.35698 59.113047 
L 240.797949 62.852699 
L 241.34916 70.126855 
L 242.010613 82.243864 
L 242.892552 102.875841 
L 246.199819 185.485297 
L 246.861273 195.243936 
L 247.412484 200.225634 
L 247.743211 201.729487 
L 247.963696 202.094613 
L 248.073938 202.084422 
L 248.294422 201.678251 
L 248.625149 200.110453 
L 249.066118 196.270903 
L 249.617329 188.815098 
L 250.278783 176.408493 
L 251.160721 155.301043 
L 254.467989 70.920928 
L 255.129443 60.974077 
L 255.680654 55.90493 
L 256.011381 54.380496 
L 256.231865 54.015102 
L 256.342107 54.029187 
L 256.562592 54.451136 
L 256.893319 56.062255 
L 257.334288 59.994867 
L 257.885499 67.619412 
L 258.546953 80.294556 
L 259.428891 101.842308 
L 262.736159 187.857914 
L 263.397612 197.977805 
L 263.948823 203.126911 
L 264.27955 204.66982 
L 264.500035 205.035089 
L 264.610277 205.01722 
L 264.830761 204.580314 
L 265.161488 202.928599 
L 265.602457 198.909254 
L 266.153669 191.127916 
L 266.815122 178.203709 
L 267.69706 156.24818 
L 270.894086 70.820795 
L 271.555539 59.865009 
L 272.106751 54.007057 
L 272.54772 51.66151 
L 272.768204 51.296723 
L 272.878447 51.318274 
L 273.098931 51.769372 
L 273.429658 53.459156 
L 273.870627 57.559374 
L 274.421838 65.486454 
L 275.083292 78.641706 
L 275.96523 100.974936 
L 279.162255 187.766525 
L 279.823709 198.879764 
L 280.37492 204.814715 
L 280.705647 206.795797 
L 280.926132 207.435114 
L 281.146616 207.523008 
L 281.367101 207.058428 
L 281.697827 205.332917 
L 282.138796 201.157252 
L 282.690008 193.094658 
L 283.351461 179.725024 
L 284.233399 157.041908 
L 287.430425 68.990393 
L 288.091879 57.732492 
L 288.64309 51.7272 
L 288.973817 49.727126 
L 289.194301 49.08498 
L 289.414786 49.002116 
L 289.63527 49.479517 
L 289.965997 51.238584 
L 290.406966 55.484672 
L 290.958177 63.673318 
L 291.619631 77.241918 
L 292.501569 100.249201 
L 295.698595 189.464252 
L 296.360048 200.854998 
L 296.911259 206.924486 
L 297.241986 208.941594 
L 297.462471 209.586001 
L 297.682955 209.66386 
L 297.90344 209.174254 
L 298.234167 207.383642 
L 298.675136 203.071781 
L 299.226347 194.765841 
L 299.8878 181.012533 
L 300.769739 157.704869 
L 303.966764 67.415379 
L 304.628218 55.902701 
L 305.179429 49.774693 
L 305.510156 47.742355 
L 305.73064 47.096208 
L 305.951125 47.023328 
L 306.171609 47.524569 
L 306.502336 49.344859 
L 306.943305 53.718186 
L 307.494517 62.133319 
L 308.15597 76.058146 
L 309.037908 99.644196 
L 312.234934 190.925767 
L 312.896387 202.550293 
L 313.447599 208.731586 
L 313.778325 210.777488 
L 313.99881 211.424896 
L 314.219294 211.492825 
L 314.439779 210.980482 
L 314.770506 209.132242 
L 315.211475 204.701435 
L 315.762686 196.184607 
L 316.42414 182.100461 
L 317.306078 158.256365 
L 320.503103 66.058841 
L 321.164557 54.331779 
L 321.715768 48.102037 
L 322.046495 46.044105 
L 322.266979 45.395876 
L 322.487464 45.332869 
L 322.707949 45.85582 
L 323.038675 47.730407 
L 323.479644 52.215003 
L 324.030856 60.826589 
L 324.692309 75.058771 
L 325.574247 99.142102 
L 328.771273 192.18521 
L 329.432726 204.006204 
L 329.983938 210.279931 
L 330.314665 212.348479 
L 330.535149 212.997126 
L 330.755634 213.055239 
L 330.976118 212.522139 
L 331.306845 210.622692 
L 331.747814 206.087724 
L 332.299025 197.387799 
L 332.960479 183.018021 
L 333.842417 158.712848 
L 337.039442 64.889202 
L 337.700896 52.982224 
L 338.252107 46.668632 
L 338.582834 44.590772 
L 338.803319 43.942079 
L 339.023803 43.88883 
L 339.244288 44.43165 
L 339.575014 46.354582 
L 340.015984 50.936757 
L 340.567195 59.719081 
L 341.228648 74.216801 
L 342.110586 98.72773 
L 345.307612 193.271786 
L 345.969066 205.257409 
L 346.520277 211.60706 
L 346.851004 213.693031 
L 347.071488 214.34143 
L 347.18173 214.44077 
L 347.291973 214.389844 
L 347.512457 213.837701 
L 347.843184 211.892562 
L 348.284153 207.266109 
L 348.835364 198.406881 
L 349.496818 183.79015 
L 350.378756 159.088342 
L 353.575782 63.879452 
L 354.237235 51.821968 
L 354.788446 45.439768 
L 355.119173 43.346795 
L 355.339658 42.699002 
L 355.4499 42.601543 
L 355.560142 42.655394 
L 355.780627 43.216491 
L 356.111354 45.182654 
L 356.552323 49.850673 
L 357.103534 58.781718 
L 357.764988 73.509199 
L 358.646926 98.38813 
L 361.843951 194.210478 
L 362.505405 206.33356 
L 363.056616 212.745067 
L 363.387343 214.844021 
L 363.607827 215.490919 
L 363.71807 215.586473 
L 363.828312 215.52975 
L 364.048796 214.960044 
L 364.379523 212.973954 
L 364.820492 208.26688 
L 365.371704 199.268723 
L 366.033157 184.438134 
L 366.915095 159.394801 
L 370.112121 63.006484 
L 370.773574 50.823591 
L 371.324786 44.38577 
L 371.655512 42.281778 
L 371.875997 41.636037 
L 371.986239 41.542411 
L 372.096481 41.601954 
L 372.316966 42.17995 
L 372.647693 44.18495 
L 373.088662 48.928755 
L 373.639873 57.98967 
L 374.301327 72.916298 
L 375.183265 98.112268 
L 378.38029 195.022656 
L 379.041744 207.260014 
L 379.592955 213.721386 
L 379.923682 215.82955 
L 380.144167 216.473891 
L 380.254409 216.56557 
L 380.364651 216.503255 
L 380.585136 215.917265 
L 380.915862 213.894297 
L 381.356831 209.115915 
L 381.908043 199.996272 
L 382.569496 184.980142 
L 383.451434 159.642414 
L 386.64846 62.250533 
L 387.309913 49.963647 
L 387.861125 43.481275 
L 388.191852 41.369741 
L 388.412336 40.727021 
L 388.522578 40.637307 
L 388.632821 40.70235 
L 388.853305 41.296056 
L 389.184032 43.336119 
L 389.625001 48.147085 
L 390.176212 57.321729 
L 390.837666 72.421312 
L 391.719604 97.890736 
L 394.916629 195.726602 
L 395.578083 208.058453 
L 396.129294 214.559471 
L 396.460021 216.673638 
L 396.680506 217.314532 
L 396.790748 217.402266 
L 396.90099 217.334538 
L 397.121475 216.733372 
L 397.452201 214.677025 
L 397.893171 209.835318 
L 398.444382 200.609125 
L 399.105835 185.431682 
L 399.987774 159.839866 
L 403.184799 61.59469 
L 403.846253 49.222087 
L 404.397464 42.704597 
L 404.728191 40.588476 
L 404.948675 39.949596 
L 405.058918 39.863855 
L 405.16916 39.934228 
L 405.389644 40.542616 
L 405.720371 42.614497 
L 406.16134 47.485235 
L 406.712551 56.759787 
L 407.374005 72.009912 
L 408.255943 97.715516 
L 411.452969 196.337952 
L 412.114422 208.747414 
L 412.665634 215.27937 
L 412.99636 217.396817 
L 413.216845 218.033512 
L 413.327087 218.117248 
L 413.437329 218.044266 
L 413.657814 217.42888 
L 413.988541 215.342159 
L 414.42951 210.443972 
L 414.980721 201.124016 
L 415.642175 185.805994 
L 416.524113 159.99456 
L 419.610896 63.5372 
L 420.27235 50.323192 
L 420.823561 43.049634 
L 421.26453 39.919003 
L 421.485014 39.28465 
L 421.595257 39.202931 
L 421.705499 39.278485 
L 421.925983 39.900665 
L 422.25671 42.001579 
L 422.697679 46.925751 
L 423.248891 56.288378 
L 423.910344 71.669868 
L 424.902524 101.129084 
L 427.768823 191.71652 
L 428.540519 207.597586 
L 429.09173 214.884658 
L 429.532699 218.016634 
L 429.753184 218.648499 
L 429.863426 218.728194 
L 429.973669 218.6501 
L 430.194153 218.021319 
L 430.52488 215.906809 
L 430.965849 210.958007 
L 431.51706 201.555239 
L 432.178514 186.114377 
L 433.170694 156.551487 
L 436.036993 65.693671 
L 436.808689 49.77651 
L 437.3599 42.477688 
L 437.800869 39.345098 
L 438.021354 38.715853 
L 438.131596 38.638192 
L 438.241838 38.718794 
L 438.462323 39.353998 
L 438.793049 41.48155 
L 439.234018 46.453726 
L 439.78523 55.894294 
L 440.446683 71.39074 
L 441.438864 101.050153 
L 444.305162 192.156984 
L 445.076858 208.106618 
L 445.62807 215.415561 
L 446.069039 218.54809 
L 446.289523 219.174591 
L 446.399765 219.250213 
L 446.510008 219.167131 
L 446.730492 218.52567 
L 447.061219 216.38559 
L 447.502188 211.391202 
L 448.053399 201.914999 
L 448.714853 186.366475 
L 449.707033 156.61715 
L 452.573332 65.281055 
L 453.345028 49.302298 
L 453.896239 41.984737 
L 454.337208 38.852892 
L 454.557693 38.229245 
L 454.667935 38.155669 
L 454.778177 38.241203 
L 454.998662 38.888767 
L 455.329389 41.0409 
L 455.770358 46.056423 
L 456.321569 55.566257 
L 456.983022 71.163617 
L 457.975203 100.996739 
L 460.841502 192.543841 
L 461.613197 208.548627 
L 462.164409 215.873416 
L 462.605378 219.004004 
L 462.825862 219.624694 
L 462.936105 219.696219 
L 463.046347 219.608258 
L 463.266831 218.954735 
L 463.597558 216.79099 
L 464.038527 211.755328 
L 464.589738 202.213717 
L 465.251192 186.570521 
L 466.243372 156.659257 
L 469.109671 64.918027 
L 469.881367 48.89007 
L 470.432578 41.559335 
L 470.873547 38.430533 
L 471.094032 37.812895 
L 471.204274 37.743425 
L 471.314516 37.833789 
L 471.535001 38.493139 
L 471.865728 40.668086 
L 472.306697 45.722964 
L 472.857908 55.294635 
L 473.519362 70.980892 
L 474.511542 100.96507 
L 477.377841 192.884825 
L 478.149537 208.933311 
L 478.700748 216.268808 
L 479.141717 219.395337 
L 479.362201 220.009836 
L 479.472444 220.077248 
L 479.582686 219.984504 
L 479.80317 219.319451 
L 480.133897 217.133681 
L 480.574866 212.060439 
L 481.126078 202.460297 
L 481.787531 186.733544 
L 482.779712 156.681291 
L 485.64601 64.597435 
L 486.417706 48.530859 
L 486.968917 41.191694 
L 487.409886 38.067889 
L 487.630371 37.456607 
L 487.740613 37.391258 
L 487.850856 37.48636 
L 488.07134 38.157001 
L 488.402067 40.353244 
L 488.843036 45.444057 
L 489.394247 55.071201 
L 490.055701 70.836074 
L 491.047881 100.95193 
L 493.91418 193.186552 
L 494.685876 209.268963 
L 495.237087 216.610787 
L 495.678056 219.731453 
L 495.898541 220.339445 
L 496.008783 220.402729 
L 496.119025 220.305288 
L 496.33951 219.629166 
L 496.670236 217.422777 
L 497.111205 212.315125 
L 497.662417 202.662338 
L 498.32387 186.861542 
L 499.316051 156.686219 
L 502.182349 64.31316 
L 502.954045 48.216997 
L 503.505257 40.873446 
L 503.946226 37.756301 
L 504.16671 37.151667 
L 504.276952 37.090449 
L 504.387195 37.190211 
L 504.607679 37.871715 
L 504.938406 40.087947 
L 505.379375 45.211761 
L 505.930586 54.888932 
L 506.59204 70.72362 
L 507.58422 100.954582 
L 510.450519 193.454682 
L 511.222215 209.562672 
L 511.773426 216.90709 
L 512.214395 220.02036 
L 512.43488 220.621576 
L 512.545122 220.680725 
L 512.655364 220.578661 
L 512.875849 219.891867 
L 513.206576 217.66607 
L 513.647545 212.526723 
L 514.198756 202.826333 
L 514.860209 186.959633 
L 515.85239 156.67657 
L 518.718689 64.059966 
L 519.490384 47.941927 
L 520.041596 40.597438 
L 520.482565 37.488367 
L 520.703049 36.890626 
L 520.813292 36.833547 
L 520.923534 36.937897 
L 521.144018 37.629895 
L 521.474745 39.864997 
L 521.915714 45.019296 
L 522.466925 54.741828 
L 523.128379 70.6388 
L 524.120559 100.970691 
L 526.986858 193.694058 
L 527.758554 209.820503 
L 528.309765 217.164329 
L 528.750734 220.268901 
L 528.971219 220.863116 
L 529.081461 220.918124 
L 529.191703 220.811502 
L 529.412188 220.11438 
L 529.742915 217.870214 
L 530.183884 212.7015 
L 530.735095 202.957826 
L 531.396549 187.03219 
L 532.388729 156.654497 
L 535.255028 63.833373 
L 536.026724 47.700041 
L 536.577935 40.357556 
L 537.018904 37.25776 
L 537.239388 36.667119 
L 537.349631 36.614183 
L 537.459873 36.723061 
L 537.680358 37.425233 
L 538.011084 39.678241 
L 538.452053 44.86087 
L 539.003265 54.624765 
L 539.664718 70.577576 
L 540.656899 100.99827 
L 543.523197 193.908824 
L 544.294893 210.047641 
L 544.846104 217.388159 
L 545.287074 220.482924 
L 545.507558 221.069948 
L 545.6178 221.120812 
L 545.728043 221.00969 
L 545.948527 220.302538 
L 546.279254 218.040894 
L 546.720223 212.844811 
L 547.271434 203.06155 
L 547.932888 187.082941 
L 548.925068 156.621835 
L 551.791367 63.62955 
L 552.563063 47.486544 
L 553.114274 40.148571 
L 553.555243 37.059073 
L 553.775728 36.475706 
L 553.88597 36.426915 
L 553.996212 36.540267 
L 554.216697 37.252336 
L 554.547423 39.522424 
L 554.988392 44.731533 
L 555.539604 54.53337 
L 556.201057 70.536502 
L 557.193238 101.035624 
L 560.059537 194.102523 
L 560.831232 210.24852 
L 561.382444 217.583414 
L 561.823413 220.66743 
L 562.043897 221.247103 
L 562.154139 221.293821 
L 562.264382 221.17825 
L 562.484866 220.461323 
L 562.815593 218.182969 
L 563.256562 212.96123 
L 563.807773 203.141549 
L 564.469227 187.115071 
L 565.461407 156.580149 
L 568.327706 63.445217 
L 569.099402 47.297337 
L 569.650613 39.966015 
L 570.091582 36.887682 
L 570.312067 36.311736 
L 570.422309 36.267092 
L 570.642794 36.664869 
L 570.863278 37.70929 
L 571.194005 40.47118 
L 571.634974 46.311425 
L 572.186185 56.837907 
L 572.957881 76.734247 
L 574.060304 112.372453 
L 576.265149 185.548092 
L 577.036845 204.291188 
L 577.698298 215.275559 
L 578.139267 219.608949 
L 578.469994 221.193838 
L 578.690479 221.44145 
L 578.910963 221.039158 
L 579.131448 219.989759 
L 579.462174 217.219615 
L 579.903143 211.367113 
L 580.454355 200.823808 
L 581.226051 180.902488 
L 582.328473 145.229697 
L 584.533318 72.009852 
L 585.305014 53.263729 
L 585.966468 42.282527 
L 586.407437 37.954097 
L 586.738164 36.374323 
L 586.958648 36.130738 
L 587.179133 36.537516 
L 587.399617 37.591827 
L 587.730344 40.370056 
L 588.171313 46.234466 
L 588.722524 56.793976 
L 589.49422 76.739121 
L 590.596643 112.444462 
L 592.801488 185.704428 
L 593.573184 204.452557 
L 594.234637 215.430002 
L 594.675606 219.753245 
L 595.006333 221.327826 
L 595.226818 221.567376 
L 595.447302 221.156139 
L 595.667787 220.096978 
L 595.998514 217.310821 
L 596.439483 211.434825 
L 596.990694 200.859684 
L 597.76239 180.891782 
L 598.864812 145.155774 
L 601.069658 71.859462 
L 601.841353 53.110271 
L 602.502807 42.137127 
L 602.943776 37.81928 
L 603.274503 36.249964 
L 603.494987 36.014457 
L 603.715472 36.430128 
L 603.935956 37.494081 
L 604.266683 40.288022 
L 604.707652 46.175303 
L 605.258864 56.765546 
L 606.030559 76.755217 
L 607.132982 112.520149 
L 609.337827 185.849314 
L 610.109523 204.598695 
L 610.770977 215.567037 
L 611.211946 219.879295 
L 611.542672 221.443279 
L 611.763157 221.674738 
L 611.983641 221.254656 
L 612.204126 220.185963 
L 612.534853 217.384374 
L 612.975822 211.486083 
L 613.527033 200.88123 
L 614.298729 180.870704 
L 615.401152 145.078459 
L 617.605997 71.71967 
L 618.377693 52.970906 
L 619.039146 42.00783 
L 619.480115 37.701338 
L 619.810842 36.142748 
L 620.031327 35.915344 
L 620.251811 36.339815 
L 620.472296 37.413198 
L 620.803022 40.222312 
L 621.243991 46.131355 
L 621.795203 56.750364 
L 622.566899 76.780899 
L 623.669321 112.598966 
L 625.874166 185.984392 
L 626.645862 204.731794 
L 627.307316 215.689174 
L 627.748285 219.989736 
L 628.079012 221.542877 
L 628.299496 221.76622 
L 628.519981 221.337381 
L 628.740465 220.259354 
L 629.071192 217.44283 
L 629.512161 211.523273 
L 630.063372 200.890529 
L 630.835068 180.840768 
L 631.937491 144.998258 
L 634.142336 71.588957 
L 634.914032 52.843606 
L 635.575485 41.892316 
L 636.016454 37.597837 
L 636.347181 36.050197 
L 636.567666 35.83092 
L 636.78815 36.264108 
L 637.008635 37.346737 
L 637.339361 40.170563 
L 637.780331 46.100415 
L 638.331542 56.746505 
L 639.103238 76.814768 
L 640.20566 112.680445 
L 642.410505 186.111066 
L 643.182201 204.853728 
L 643.843655 215.798561 
L 644.284624 220.086817 
L 644.615351 221.628908 
L 644.835835 221.844116 
L 645.05632 221.406595 
L 645.276804 220.319404 
L 645.607531 217.488376 
L 646.0485 211.548433 
L 646.599711 200.889357 
L 647.371407 180.803263 
L 648.47383 144.9156 
L 650.678675 71.466022 
L 651.450371 52.726636 
L 652.111824 41.788599 
L 652.552794 37.506695 
L 652.88352 35.970197 
L 653.104005 35.759063 
L 653.324489 36.200899 
L 653.544974 37.292616 
L 653.875701 40.130755 
L 654.31667 46.0806 
L 654.867881 56.752327 
L 655.639577 76.855632 
L 656.741999 112.764189 
L 658.946845 186.230539 
L 659.71854 204.966103 
L 660.379994 215.897032 
L 660.820963 220.172465 
L 661.15169 221.703329 
L 661.372174 221.910386 
L 661.592659 221.46425 
L 661.813143 220.368041 
L 662.14387 217.522876 
L 662.584839 211.563304 
L 663.136051 200.879234 
L 663.907746 180.759293 
L 665.010169 144.830854 
L 667.215014 71.349754 
L 667.98671 52.618514 
L 668.648164 41.694982 
L 669.089133 37.42613 
L 669.419859 35.900937 
L 669.640344 35.697962 
L 669.860828 36.148383 
L 670.191555 38.040996 
L 670.632524 42.78387 
L 671.183736 52.080391 
L 671.845189 67.619019 
L 672.727127 94.117239 
L 676.034395 200.323654 
L 676.695849 212.92912 
L 677.24706 219.419465 
L 677.577787 221.423531 
L 677.798271 221.948977 
L 677.908514 221.966706 
L 678.128998 221.512012 
L 678.459725 219.612703 
L 678.900694 214.860535 
L 679.451905 205.552182 
L 680.113359 189.999741 
L 680.995297 163.485193 
L 684.302565 57.26265 
L 684.964018 44.664092 
L 685.51523 38.181689 
L 685.845956 36.183187 
L 686.066441 35.661728 
L 686.176683 35.646066 
L 686.397168 36.10502 
L 686.727894 38.010978 
L 687.168863 42.77233 
L 687.720075 52.092298 
L 688.381528 67.658199 
L 689.263466 94.188481 
L 692.570734 200.424838 
L 693.232188 213.016222 
L 693.783399 219.490549 
L 694.114126 221.483449 
L 694.33461 222.000911 
L 694.444853 222.014507 
L 694.665337 221.551305 
L 694.996064 219.63874 
L 695.437033 214.868309 
L 695.988244 205.536922 
L 696.649698 189.957888 
L 697.531636 163.412424 
L 700.838904 57.164395 
L 701.500357 44.58043 
L 702.051569 38.114302 
L 702.382295 36.127042 
L 702.60278 35.613585 
L 702.713022 35.602054 
L 702.933507 36.069493 
L 703.264234 37.988625 
L 703.705203 42.76804 
L 704.256414 52.110661 
L 704.917867 67.702524 
L 705.799806 94.262662 
L 709.107073 200.520381 
L 709.768527 213.096701 
L 710.319738 219.554515 
L 710.650465 221.536102 
L 710.87095 222.045547 
L 710.981192 222.055013 
L 711.201676 221.583346 
L 711.532403 219.657684 
L 711.973372 214.869375 
L 712.524583 205.51569 
L 713.186037 189.911278 
L 714.067975 163.336938 
L 717.375243 57.071363 
L 718.036697 44.502898 
L 718.587908 38.053503 
L 718.918635 36.077621 
L 719.139119 35.572195 
L 719.249361 35.564793 
L 719.469846 36.040678 
L 719.800573 37.972836 
L 720.241542 42.769957 
L 720.792753 52.134547 
L 721.454207 67.751249 
L 722.336145 94.339353 
L 725.643413 200.611087 
L 726.304866 213.171503 
L 726.856077 219.612382 
L 727.186804 221.582532 
L 727.407289 222.083931 
L 727.517531 222.08927 
L 727.738016 221.609176 
L 728.068742 219.670554 
L 728.509711 214.864697 
L 729.060923 205.489347 
L 729.722376 189.860597 
L 730.604314 163.259132 
L 733.911582 56.98281 
L 734.573036 44.430623 
L 735.124247 37.99835 
L 735.454974 36.03396 
L 735.675458 35.536593 
L 735.785701 35.533317 
L 736.006185 36.017612 
L 736.336912 37.962668 
L 736.777881 42.77719 
L 737.329092 52.163164 
L 737.990546 67.80374 
L 738.872484 94.418191 
L 742.179752 200.697645 
L 742.841205 213.241438 
L 743.392417 219.665022 
L 743.723143 221.623627 
L 743.943628 222.116958 
L 744.05387 222.118171 
L 744.274355 221.629682 
L 744.605081 219.67822 
L 745.04605 214.855098 
L 745.597262 205.458626 
L 746.258715 189.806431 
L 747.140653 163.179341 
L 748.132834 128.818828 
L 748.132834 128.818828 
" clip-path="url(#peb0eff7ef8)" style="fill: none; stroke: #2563eb; stroke-width: 1.1; stroke-linecap: square"/>
   </g>
   <g id="line2d_23">
    <path d="M 86.78951 128.818828 
L 92.742592 123.677366 
L 98.805916 118.731215 
L 104.979483 113.979507 
L 111.263292 109.42083 
L 117.657343 105.053265 
L 124.271879 100.805798 
L 130.996657 96.752659 
L 137.831677 92.890043 
L 144.887182 89.157387 
L 152.163171 85.561378 
L 159.659644 82.107437 
L 167.376603 78.799756 
L 175.314046 75.641349 
L 183.471973 72.634111 
L 191.960627 69.742811 
L 200.780008 66.975903 
L 209.930116 64.340052 
L 219.41095 61.840197 
L 229.332753 59.454339 
L 239.695526 57.191276 
L 250.60951 55.036866 
L 262.074705 53.001805 
L 274.201354 51.077422 
L 286.989456 49.274472 
L 300.659496 47.574658 
L 315.211475 45.992059 
L 330.865876 44.516954 
L 347.732942 43.15489 
L 366.033157 41.904214 
L 385.987006 40.766851 
L 408.035459 39.737077 
L 432.619483 38.816617 
L 460.29029 38.007831 
L 492.040061 37.307408 
L 529.301946 36.714303 
L 574.280788 36.228743 
L 630.94531 35.849616 
L 707.232955 35.575538 
L 748.132834 35.492621 
L 748.132834 35.492621 
" clip-path="url(#peb0eff7ef8)" style="fill: none; stroke-dasharray: 3.33,1.44; stroke-dashoffset: 0; stroke: #2563eb; stroke-width: 0.9"/>
   </g>
   <g id="line2d_24">
    <path d="M 86.78951 128.818828 
L 92.742592 133.96029 
L 98.805916 138.906441 
L 104.979483 143.65815 
L 111.263292 148.216826 
L 117.657343 152.584391 
L 124.271879 156.831858 
L 130.996657 160.884998 
L 137.831677 164.747613 
L 144.887182 168.48027 
L 152.163171 172.076278 
L 159.659644 175.530219 
L 167.376603 178.8379 
L 175.314046 181.996308 
L 183.471973 185.003545 
L 191.960627 187.894846 
L 200.780008 190.661754 
L 209.930116 193.297604 
L 219.41095 195.797459 
L 229.332753 198.183317 
L 239.695526 200.44638 
L 250.60951 202.60079 
L 262.074705 204.635851 
L 274.201354 206.560234 
L 286.989456 208.363184 
L 300.659496 210.062998 
L 315.211475 211.645598 
L 330.865876 213.120703 
L 347.732942 214.482766 
L 366.033157 215.733443 
L 385.987006 216.870806 
L 408.035459 217.900579 
L 432.619483 218.82104 
L 460.29029 219.629825 
L 492.040061 220.330249 
L 529.301946 220.923353 
L 574.280788 221.408913 
L 630.94531 221.78804 
L 707.232955 222.062118 
L 748.132834 222.145036 
L 748.132834 222.145036 
" clip-path="url(#peb0eff7ef8)" style="fill: none; stroke-dasharray: 3.33,1.44; stroke-dashoffset: 0; stroke: #2563eb; stroke-width: 0.9"/>
   </g>
   <g id="patch_3">
    <path d="M 53.722344 231.477656 
L 53.722344 26.16 
" style="fill: none; stroke: #888888; stroke-width: 0.8; stroke-linejoin: miter; stroke-linecap: square"/>
   </g>
   <g id="patch_4">
    <path d="M 781.2 231.477656 
L 781.2 26.16 
" style="fill: none; stroke: #888888; stroke-width: 0.8; stroke-linejoin: miter; stroke-linecap: square"/>
   </g>
   <g id="patch_5">
    <path d="M 53.722344 231.477656 
L 781.2 231.477656 
" style="fill: none; stroke: #888888; stroke-width: 0.8; stroke-linejoin: miter; stroke-linecap: square"/>
   </g>
   <g id="patch_6">
    <path d="M 53.722344 26.16 
L 781.2 26.16 
" style="fill: none; stroke: #888888; stroke-width: 0.8; stroke-linejoin: miter; stroke-linecap: square"/>
   </g>
   <g id="text_21">
    <!-- switched on at the natural frequency: the ring grows to Q × static deflection, taking about Q/π cycles to reach 63 % -->
    <g style="fill: #888888" transform="translate(69.685234 20.16) scale(0.12 -0.12)">
     <defs>
      <path id="DejaVuSans-58" d="M 544 1381 
L 544 3500 
L 1119 3500 
L 1119 1403 
Q 1119 906 1312 657 
Q 1506 409 1894 409 
Q 2359 409 2629 706 
Q 2900 1003 2900 1516 
L 2900 3500 
L 3475 3500 
L 3475 0 
L 2900 0 
L 2900 538 
Q 2691 219 2414 64 
Q 2138 -91 1772 -91 
Q 1169 -91 856 284 
Q 544 659 544 1381 
z
M 1991 3584 
L 1991 3584 
z
" transform="scale(0.015625)"/>
      <path id="DejaVuSans-49" d="M 2375 4863 
L 2375 4384 
L 1825 4384 
Q 1516 4384 1395 4259 
Q 1275 4134 1275 3809 
L 1275 3500 
L 2222 3500 
L 2222 3053 
L 1275 3053 
L 1275 0 
L 697 0 
L 697 3053 
L 147 3053 
L 147 3500 
L 697 3500 
L 697 3744 
Q 697 4328 969 4595 
Q 1241 4863 1831 4863 
L 2375 4863 
z
" transform="scale(0.015625)"/>
      <path id="DejaVuSans-54" d="M 947 1747 
Q 947 1113 1208 752 
Q 1469 391 1925 391 
Q 2381 391 2643 752 
Q 2906 1113 2906 1747 
Q 2906 2381 2643 2742 
Q 2381 3103 1925 3103 
Q 1469 3103 1208 2742 
Q 947 2381 947 1747 
z
M 2906 525 
Q 2725 213 2448 61 
Q 2172 -91 1784 -91 
Q 1150 -91 751 415 
Q 353 922 353 1747 
Q 353 2572 751 3078 
Q 1150 3584 1784 3584 
Q 2172 3584 2448 3432 
Q 2725 3281 2906 2969 
L 2906 3500 
L 3481 3500 
L 3481 -1331 
L 2906 -1331 
L 2906 525 
z
" transform="scale(0.015625)"/>
      <path id="DejaVuSans-1d" d="M 750 794 
L 1409 794 
L 1409 0 
L 750 0 
L 750 794 
z
M 750 3309 
L 1409 3309 
L 1409 2516 
L 750 2516 
L 750 3309 
z
" transform="scale(0.015625)"/>
      <path id="DejaVuSans-4a" d="M 2906 1791 
Q 2906 2416 2648 2759 
Q 2391 3103 1925 3103 
Q 1463 3103 1205 2759 
Q 947 2416 947 1791 
Q 947 1169 1205 825 
Q 1463 481 1925 481 
Q 2391 481 2648 825 
Q 2906 1169 2906 1791 
z
M 3481 434 
Q 3481 -459 3084 -895 
Q 2688 -1331 1869 -1331 
Q 1566 -1331 1297 -1286 
Q 1028 -1241 775 -1147 
L 775 -588 
Q 1028 -725 1275 -790 
Q 1522 -856 1778 -856 
Q 2344 -856 2625 -561 
Q 2906 -266 2906 331 
L 2906 616 
Q 2728 306 2450 153 
Q 2172 0 1784 0 
Q 1141 0 747 490 
Q 353 981 353 1791 
Q 353 2603 747 3093 
Q 1141 3584 1784 3584 
Q 2172 3584 2450 3431 
Q 2728 3278 2906 2969 
L 2906 3500 
L 3481 3500 
L 3481 434 
z
" transform="scale(0.015625)"/>
      <path id="DejaVuSans-34" d="M 2522 4238 
Q 1834 4238 1429 3725 
Q 1025 3213 1025 2328 
Q 1025 1447 1429 934 
Q 1834 422 2522 422 
Q 3209 422 3611 934 
Q 4013 1447 4013 2328 
Q 4013 3213 3611 3725 
Q 3209 4238 2522 4238 
z
M 3406 84 
L 4238 -825 
L 3475 -825 
L 2784 -78 
Q 2681 -84 2626 -87 
Q 2572 -91 2522 -91 
Q 1538 -91 948 567 
Q 359 1225 359 2328 
Q 359 3434 948 4092 
Q 1538 4750 2522 4750 
Q 3503 4750 4090 4092 
Q 4678 3434 4678 2328 
Q 4678 1516 4351 937 
Q 4025 359 3406 84 
z
" transform="scale(0.015625)"/>
      <path id="DejaVuSans-99" d="M 4488 3438 
L 3059 2003 
L 4488 575 
L 4116 197 
L 2681 1631 
L 1247 197 
L 878 575 
L 2303 2003 
L 878 3438 
L 1247 3816 
L 2681 2381 
L 4116 3816 
L 4488 3438 
z
" transform="scale(0.015625)"/>
      <path id="DejaVuSans-f" d="M 750 794 
L 1409 794 
L 1409 256 
L 897 -744 
L 494 -744 
L 750 256 
L 750 794 
z
" transform="scale(0.015625)"/>
      <path id="DejaVuSans-4e" d="M 581 4863 
L 1159 4863 
L 1159 1991 
L 2875 3500 
L 3609 3500 
L 1753 1863 
L 3688 0 
L 2938 0 
L 1159 1709 
L 1159 0 
L 581 0 
L 581 4863 
z
" transform="scale(0.015625)"/>
      <path id="DejaVuSans-45" d="M 3116 1747 
Q 3116 2381 2855 2742 
Q 2594 3103 2138 3103 
Q 1681 3103 1420 2742 
Q 1159 2381 1159 1747 
Q 1159 1113 1420 752 
Q 1681 391 2138 391 
Q 2594 391 2855 752 
Q 3116 1113 3116 1747 
z
M 1159 2969 
Q 1341 3281 1617 3432 
Q 1894 3584 2278 3584 
Q 2916 3584 3314 3078 
Q 3713 2572 3713 1747 
Q 3713 922 3314 415 
Q 2916 -91 2278 -91 
Q 1894 -91 1617 61 
Q 1341 213 1159 525 
L 1159 0 
L 581 0 
L 581 4863 
L 1159 4863 
L 1159 2969 
z
" transform="scale(0.015625)"/>
      <path id="DejaVuSans-12" d="M 1625 4666 
L 2156 4666 
L 531 -594 
L 0 -594 
L 1625 4666 
z
" transform="scale(0.015625)"/>
      <path id="DejaVuSans-354" d="M 231 3500 
L 3584 3500 
L 3584 2925 
L 3144 2925 
L 3144 775 
Q 3144 550 3220 451 
Q 3297 353 3469 353 
Q 3516 353 3584 361 
Q 3653 369 3675 372 
L 3675 -44 
Q 3566 -84 3450 -103 
Q 3334 -122 3219 -122 
Q 2844 -122 2700 83 
Q 2556 288 2556 838 
L 2556 2925 
L 1266 2925 
L 1266 0 
L 678 0 
L 678 2925 
L 231 2925 
L 231 3500 
z
" transform="scale(0.015625)"/>
      <path id="DejaVuSans-19" d="M 2113 2584 
Q 1688 2584 1439 2293 
Q 1191 2003 1191 1497 
Q 1191 994 1439 701 
Q 1688 409 2113 409 
Q 2538 409 2786 701 
Q 3034 994 3034 1497 
Q 3034 2003 2786 2293 
Q 2538 2584 2113 2584 
z
M 3366 4563 
L 3366 3988 
Q 3128 4100 2886 4159 
Q 2644 4219 2406 4219 
Q 1781 4219 1451 3797 
Q 1122 3375 1075 2522 
Q 1259 2794 1537 2939 
Q 1816 3084 2150 3084 
Q 2853 3084 3261 2657 
Q 3669 2231 3669 1497 
Q 3669 778 3244 343 
Q 2819 -91 2113 -91 
Q 1303 -91 875 529 
Q 447 1150 447 2328 
Q 447 3434 972 4092 
Q 1497 4750 2381 4750 
Q 2619 4750 2861 4703 
Q 3103 4656 3366 4563 
z
" transform="scale(0.015625)"/>
      <path id="DejaVuSans-8" d="M 4653 2053 
Q 4381 2053 4226 1822 
Q 4072 1591 4072 1178 
Q 4072 772 4226 539 
Q 4381 306 4653 306 
Q 4919 306 5073 539 
Q 5228 772 5228 1178 
Q 5228 1588 5073 1820 
Q 4919 2053 4653 2053 
z
M 4653 2450 
Q 5147 2450 5437 2106 
Q 5728 1763 5728 1178 
Q 5728 594 5436 251 
Q 5144 -91 4653 -91 
Q 4153 -91 3862 251 
Q 3572 594 3572 1178 
Q 3572 1766 3864 2108 
Q 4156 2450 4653 2450 
z
M 1428 4353 
Q 1159 4353 1004 4120 
Q 850 3888 850 3481 
Q 850 3069 1003 2837 
Q 1156 2606 1428 2606 
Q 1700 2606 1854 2837 
Q 2009 3069 2009 3481 
Q 2009 3884 1853 4118 
Q 1697 4353 1428 4353 
z
M 4250 4750 
L 4750 4750 
L 1831 -91 
L 1331 -91 
L 4250 4750 
z
M 1428 4750 
Q 1922 4750 2215 4408 
Q 2509 4066 2509 3481 
Q 2509 2891 2217 2550 
Q 1925 2209 1428 2209 
Q 931 2209 642 2551 
Q 353 2894 353 3481 
Q 353 4063 643 4406 
Q 934 4750 1428 4750 
z
" transform="scale(0.015625)"/>
     </defs>
     <use xlink:href="#DejaVuSans-56"/>
     <use xlink:href="#DejaVuSans-5a" transform="translate(52.09375 0)"/>
     <use xlink:href="#DejaVuSans-4c" transform="translate(133.875 0)"/>
     <use xlink:href="#DejaVuSans-57" transform="translate(161.65625 0)"/>
     <use xlink:href="#DejaVuSans-46" transform="translate(200.859375 0)"/>
     <use xlink:href="#DejaVuSans-4b" transform="translate(255.84375 0)"/>
     <use xlink:href="#DejaVuSans-48" transform="translate(319.21875 0)"/>
     <use xlink:href="#DejaVuSans-47" transform="translate(380.75 0)"/>
     <use xlink:href="#DejaVuSans-3" transform="translate(444.234375 0)"/>
     <use xlink:href="#DejaVuSans-52" transform="translate(476.015625 0)"/>
     <use xlink:href="#DejaVuSans-51" transform="translate(537.203125 0)"/>
     <use xlink:href="#DejaVuSans-3" transform="translate(600.578125 0)"/>
     <use xlink:href="#DejaVuSans-44" transform="translate(632.359375 0)"/>
     <use xlink:href="#DejaVuSans-57" transform="translate(693.640625 0)"/>
     <use xlink:href="#DejaVuSans-3" transform="translate(732.84375 0)"/>
     <use xlink:href="#DejaVuSans-57" transform="translate(764.625 0)"/>
     <use xlink:href="#DejaVuSans-4b" transform="translate(803.828125 0)"/>
     <use xlink:href="#DejaVuSans-48" transform="translate(867.203125 0)"/>
     <use xlink:href="#DejaVuSans-3" transform="translate(928.734375 0)"/>
     <use xlink:href="#DejaVuSans-51" transform="translate(960.515625 0)"/>
     <use xlink:href="#DejaVuSans-44" transform="translate(1023.890625 0)"/>
     <use xlink:href="#DejaVuSans-57" transform="translate(1085.171875 0)"/>
     <use xlink:href="#DejaVuSans-58" transform="translate(1124.375 0)"/>
     <use xlink:href="#DejaVuSans-55" transform="translate(1187.75 0)"/>
     <use xlink:href="#DejaVuSans-44" transform="translate(1228.859375 0)"/>
     <use xlink:href="#DejaVuSans-4f" transform="translate(1290.140625 0)"/>
     <use xlink:href="#DejaVuSans-3" transform="translate(1317.921875 0)"/>
     <use xlink:href="#DejaVuSans-49" transform="translate(1349.703125 0)"/>
     <use xlink:href="#DejaVuSans-55" transform="translate(1384.90625 0)"/>
     <use xlink:href="#DejaVuSans-48" transform="translate(1423.8125 0)"/>
     <use xlink:href="#DejaVuSans-54" transform="translate(1485.34375 0)"/>
     <use xlink:href="#DejaVuSans-58" transform="translate(1548.828125 0)"/>
     <use xlink:href="#DejaVuSans-48" transform="translate(1612.203125 0)"/>
     <use xlink:href="#DejaVuSans-51" transform="translate(1673.734375 0)"/>
     <use xlink:href="#DejaVuSans-46" transform="translate(1737.109375 0)"/>
     <use xlink:href="#DejaVuSans-5c" transform="translate(1792.09375 0)"/>
     <use xlink:href="#DejaVuSans-1d" transform="translate(1844 0)"/>
     <use xlink:href="#DejaVuSans-3" transform="translate(1877.6875 0)"/>
     <use xlink:href="#DejaVuSans-57" transform="translate(1909.46875 0)"/>
     <use xlink:href="#DejaVuSans-4b" transform="translate(1948.671875 0)"/>
     <use xlink:href="#DejaVuSans-48" transform="translate(2012.046875 0)"/>
     <use xlink:href="#DejaVuSans-3" transform="translate(2073.578125 0)"/>
     <use xlink:href="#DejaVuSans-55" transform="translate(2105.359375 0)"/>
     <use xlink:href="#DejaVuSans-4c" transform="translate(2146.46875 0)"/>
     <use xlink:href="#DejaVuSans-51" transform="translate(2174.25 0)"/>
     <use xlink:href="#DejaVuSans-4a" transform="translate(2237.625 0)"/>
     <use xlink:href="#DejaVuSans-3" transform="translate(2301.109375 0)"/>
     <use xlink:href="#DejaVuSans-4a" transform="translate(2332.890625 0)"/>
     <use xlink:href="#DejaVuSans-55" transform="translate(2396.375 0)"/>
     <use xlink:href="#DejaVuSans-52" transform="translate(2435.28125 0)"/>
     <use xlink:href="#DejaVuSans-5a" transform="translate(2496.46875 0)"/>
     <use xlink:href="#DejaVuSans-56" transform="translate(2578.25 0)"/>
     <use xlink:href="#DejaVuSans-3" transform="translate(2630.34375 0)"/>
     <use xlink:href="#DejaVuSans-57" transform="translate(2662.125 0)"/>
     <use xlink:href="#DejaVuSans-52" transform="translate(2701.328125 0)"/>
     <use xlink:href="#DejaVuSans-3" transform="translate(2762.515625 0)"/>
     <use xlink:href="#DejaVuSans-34" transform="translate(2794.296875 0)"/>
     <use xlink:href="#DejaVuSans-3" transform="translate(2873.015625 0)"/>
     <use xlink:href="#DejaVuSans-99" transform="translate(2904.796875 0)"/>
     <use xlink:href="#DejaVuSans-3" transform="translate(2988.59375 0)"/>
     <use xlink:href="#DejaVuSans-56" transform="translate(3020.375 0)"/>
     <use xlink:href="#DejaVuSans-57" transform="translate(3072.46875 0)"/>
     <use xlink:href="#DejaVuSans-44" transform="translate(3111.671875 0)"/>
     <use xlink:href="#DejaVuSans-57" transform="translate(3172.953125 0)"/>
     <use xlink:href="#DejaVuSans-4c" transform="translate(3212.15625 0)"/>
     <use xlink:href="#DejaVuSans-46" transform="translate(3239.9375 0)"/>
     <use xlink:href="#DejaVuSans-3" transform="translate(3294.921875 0)"/>
     <use xlink:href="#DejaVuSans-47" transform="translate(3326.703125 0)"/>
     <use xlink:href="#DejaVuSans-48" transform="translate(3390.1875 0)"/>
     <use xlink:href="#DejaVuSans-13b0" transform="translate(3451.71875 0)"/>
     <use xlink:href="#DejaVuSans-48" transform="translate(3514.703125 0)"/>
     <use xlink:href="#DejaVuSans-46" transform="translate(3576.234375 0)"/>
     <use xlink:href="#DejaVuSans-57" transform="translate(3631.21875 0)"/>
     <use xlink:href="#DejaVuSans-4c" transform="translate(3670.421875 0)"/>
     <use xlink:href="#DejaVuSans-52" transform="translate(3698.203125 0)"/>
     <use xlink:href="#DejaVuSans-51" transform="translate(3759.390625 0)"/>
     <use xlink:href="#DejaVuSans-f" transform="translate(3822.765625 0)"/>
     <use xlink:href="#DejaVuSans-3" transform="translate(3854.546875 0)"/>
     <use xlink:href="#DejaVuSans-57" transform="translate(3886.328125 0)"/>
     <use xlink:href="#DejaVuSans-44" transform="translate(3925.53125 0)"/>
     <use xlink:href="#DejaVuSans-4e" transform="translate(3986.8125 0)"/>
     <use xlink:href="#DejaVuSans-4c" transform="translate(4044.71875 0)"/>
     <use xlink:href="#DejaVuSans-51" transform="translate(4072.5 0)"/>
     <use xlink:href="#DejaVuSans-4a" transform="translate(4135.875 0)"/>
     <use xlink:href="#DejaVuSans-3" transform="translate(4199.359375 0)"/>
     <use xlink:href="#DejaVuSans-44" transform="translate(4231.140625 0)"/>
     <use xlink:href="#DejaVuSans-45" transform="translate(4292.421875 0)"/>
     <use xlink:href="#DejaVuSans-52" transform="translate(4355.90625 0)"/>
     <use xlink:href="#DejaVuSans-58" transform="translate(4417.09375 0)"/>
     <use xlink:href="#DejaVuSans-57" transform="translate(4480.46875 0)"/>
     <use xlink:href="#DejaVuSans-3" transform="translate(4519.671875 0)"/>
     <use xlink:href="#DejaVuSans-34" transform="translate(4551.453125 0)"/>
     <use xlink:href="#DejaVuSans-12" transform="translate(4630.171875 0)"/>
     <use xlink:href="#DejaVuSans-354" transform="translate(4663.859375 0)"/>
     <use xlink:href="#DejaVuSans-3" transform="translate(4724.0625 0)"/>
     <use xlink:href="#DejaVuSans-46" transform="translate(4755.84375 0)"/>
     <use xlink:href="#DejaVuSans-5c" transform="translate(4810.828125 0)"/>
     <use xlink:href="#DejaVuSans-46" transform="translate(4870.015625 0)"/>
     <use xlink:href="#DejaVuSans-4f" transform="translate(4925 0)"/>
     <use xlink:href="#DejaVuSans-48" transform="translate(4952.78125 0)"/>
     <use xlink:href="#DejaVuSans-56" transform="translate(5014.3125 0)"/>
     <use xlink:href="#DejaVuSans-3" transform="translate(5066.40625 0)"/>
     <use xlink:href="#DejaVuSans-57" transform="translate(5098.1875 0)"/>
     <use xlink:href="#DejaVuSans-52" transform="translate(5137.390625 0)"/>
     <use xlink:href="#DejaVuSans-3" transform="translate(5198.578125 0)"/>
     <use xlink:href="#DejaVuSans-55" transform="translate(5230.359375 0)"/>
     <use xlink:href="#DejaVuSans-48" transform="translate(5269.265625 0)"/>
     <use xlink:href="#DejaVuSans-44" transform="translate(5330.796875 0)"/>
     <use xlink:href="#DejaVuSans-46" transform="translate(5392.078125 0)"/>
     <use xlink:href="#DejaVuSans-4b" transform="translate(5447.0625 0)"/>
     <use xlink:href="#DejaVuSans-3" transform="translate(5510.4375 0)"/>
     <use xlink:href="#DejaVuSans-19" transform="translate(5542.21875 0)"/>
     <use xlink:href="#DejaVuSans-16" transform="translate(5605.84375 0)"/>
     <use xlink:href="#DejaVuSans-3" transform="translate(5669.46875 0)"/>
     <use xlink:href="#DejaVuSans-8" transform="translate(5701.25 0)"/>
    </g>
   </g>
   <g id="legend_1">
    <g id="line2d_25">
     <path d="M 61.822344 37.948594 
L 70.822344 37.948594 
L 79.822344 37.948594 
" style="fill: none; stroke: #f59e0b; stroke-width: 1.1; stroke-linecap: square"/>
    </g>
    <g id="text_22">
     <!-- Q = 5: settles in about 5 cycles -->
     <g style="fill: #888888" transform="translate(87.022344 41.098594) scale(0.09 -0.09)">
      <defs>
       <path id="DejaVuSans-20" d="M 678 2906 
L 4684 2906 
L 4684 2381 
L 678 2381 
L 678 2906 
z
M 678 1631 
L 4684 1631 
L 4684 1100 
L 678 1100 
L 678 1631 
z
" transform="scale(0.015625)"/>
      </defs>
      <use xlink:href="#DejaVuSans-34"/>
      <use xlink:href="#DejaVuSans-3" transform="translate(78.71875 0)"/>
      <use xlink:href="#DejaVuSans-20" transform="translate(110.5 0)"/>
      <use xlink:href="#DejaVuSans-3" transform="translate(194.296875 0)"/>
      <use xlink:href="#DejaVuSans-18" transform="translate(226.078125 0)"/>
      <use xlink:href="#DejaVuSans-1d" transform="translate(289.703125 0)"/>
      <use xlink:href="#DejaVuSans-3" transform="translate(323.390625 0)"/>
      <use xlink:href="#DejaVuSans-56" transform="translate(355.171875 0)"/>
      <use xlink:href="#DejaVuSans-48" transform="translate(407.265625 0)"/>
      <use xlink:href="#DejaVuSans-57" transform="translate(468.796875 0)"/>
      <use xlink:href="#DejaVuSans-57" transform="translate(508 0)"/>
      <use xlink:href="#DejaVuSans-4f" transform="translate(547.203125 0)"/>
      <use xlink:href="#DejaVuSans-48" transform="translate(574.984375 0)"/>
      <use xlink:href="#DejaVuSans-56" transform="translate(636.515625 0)"/>
      <use xlink:href="#DejaVuSans-3" transform="translate(688.609375 0)"/>
      <use xlink:href="#DejaVuSans-4c" transform="translate(720.390625 0)"/>
      <use xlink:href="#DejaVuSans-51" transform="translate(748.171875 0)"/>
      <use xlink:href="#DejaVuSans-3" transform="translate(811.546875 0)"/>
      <use xlink:href="#DejaVuSans-44" transform="translate(843.328125 0)"/>
      <use xlink:href="#DejaVuSans-45" transform="translate(904.609375 0)"/>
      <use xlink:href="#DejaVuSans-52" transform="translate(968.09375 0)"/>
      <use xlink:href="#DejaVuSans-58" transform="translate(1029.28125 0)"/>
      <use xlink:href="#DejaVuSans-57" transform="translate(1092.65625 0)"/>
      <use xlink:href="#DejaVuSans-3" transform="translate(1131.859375 0)"/>
      <use xlink:href="#DejaVuSans-18" transform="translate(1163.640625 0)"/>
      <use xlink:href="#DejaVuSans-3" transform="translate(1227.265625 0)"/>
      <use xlink:href="#DejaVuSans-46" transform="translate(1259.046875 0)"/>
      <use xlink:href="#DejaVuSans-5c" transform="translate(1314.03125 0)"/>
      <use xlink:href="#DejaVuSans-46" transform="translate(1373.21875 0)"/>
      <use xlink:href="#DejaVuSans-4f" transform="translate(1428.203125 0)"/>
      <use xlink:href="#DejaVuSans-48" transform="translate(1455.984375 0)"/>
      <use xlink:href="#DejaVuSans-56" transform="translate(1517.515625 0)"/>
     </g>
    </g>
    <g id="line2d_26">
     <path d="M 61.822344 51.449297 
L 70.822344 51.449297 
L 79.822344 51.449297 
" style="fill: none; stroke: #2563eb; stroke-width: 1.1; stroke-linecap: square"/>
    </g>
    <g id="text_23">
     <!-- Q = 20: settles in about 19 cycles -->
     <g style="fill: #888888" transform="translate(87.022344 54.599297) scale(0.09 -0.09)">
      <defs>
       <path id="DejaVuSans-1c" d="M 703 97 
L 703 672 
Q 941 559 1184 500 
Q 1428 441 1663 441 
Q 2288 441 2617 861 
Q 2947 1281 2994 2138 
Q 2813 1869 2534 1725 
Q 2256 1581 1919 1581 
Q 1219 1581 811 2004 
Q 403 2428 403 3163 
Q 403 3881 828 4315 
Q 1253 4750 1959 4750 
Q 2769 4750 3195 4129 
Q 3622 3509 3622 2328 
Q 3622 1225 3098 567 
Q 2575 -91 1691 -91 
Q 1453 -91 1209 -44 
Q 966 3 703 97 
z
M 1959 2075 
Q 2384 2075 2632 2365 
Q 2881 2656 2881 3163 
Q 2881 3666 2632 3958 
Q 2384 4250 1959 4250 
Q 1534 4250 1286 3958 
Q 1038 3666 1038 3163 
Q 1038 2656 1286 2365 
Q 1534 2075 1959 2075 
z
" transform="scale(0.015625)"/>
      </defs>
      <use xlink:href="#DejaVuSans-34"/>
      <use xlink:href="#DejaVuSans-3" transform="translate(78.71875 0)"/>
      <use xlink:href="#DejaVuSans-20" transform="translate(110.5 0)"/>
      <use xlink:href="#DejaVuSans-3" transform="translate(194.296875 0)"/>
      <use xlink:href="#DejaVuSans-15" transform="translate(226.078125 0)"/>
      <use xlink:href="#DejaVuSans-13" transform="translate(289.703125 0)"/>
      <use xlink:href="#DejaVuSans-1d" transform="translate(353.328125 0)"/>
      <use xlink:href="#DejaVuSans-3" transform="translate(387.015625 0)"/>
      <use xlink:href="#DejaVuSans-56" transform="translate(418.796875 0)"/>
      <use xlink:href="#DejaVuSans-48" transform="translate(470.890625 0)"/>
      <use xlink:href="#DejaVuSans-57" transform="translate(532.421875 0)"/>
      <use xlink:href="#DejaVuSans-57" transform="translate(571.625 0)"/>
      <use xlink:href="#DejaVuSans-4f" transform="translate(610.828125 0)"/>
      <use xlink:href="#DejaVuSans-48" transform="translate(638.609375 0)"/>
      <use xlink:href="#DejaVuSans-56" transform="translate(700.140625 0)"/>
      <use xlink:href="#DejaVuSans-3" transform="translate(752.234375 0)"/>
      <use xlink:href="#DejaVuSans-4c" transform="translate(784.015625 0)"/>
      <use xlink:href="#DejaVuSans-51" transform="translate(811.796875 0)"/>
      <use xlink:href="#DejaVuSans-3" transform="translate(875.171875 0)"/>
      <use xlink:href="#DejaVuSans-44" transform="translate(906.953125 0)"/>
      <use xlink:href="#DejaVuSans-45" transform="translate(968.234375 0)"/>
      <use xlink:href="#DejaVuSans-52" transform="translate(1031.71875 0)"/>
      <use xlink:href="#DejaVuSans-58" transform="translate(1092.90625 0)"/>
      <use xlink:href="#DejaVuSans-57" transform="translate(1156.28125 0)"/>
      <use xlink:href="#DejaVuSans-3" transform="translate(1195.484375 0)"/>
      <use xlink:href="#DejaVuSans-14" transform="translate(1227.265625 0)"/>
      <use xlink:href="#DejaVuSans-1c" transform="translate(1290.890625 0)"/>
      <use xlink:href="#DejaVuSans-3" transform="translate(1354.515625 0)"/>
      <use xlink:href="#DejaVuSans-46" transform="translate(1386.296875 0)"/>
      <use xlink:href="#DejaVuSans-5c" transform="translate(1441.28125 0)"/>
      <use xlink:href="#DejaVuSans-46" transform="translate(1500.46875 0)"/>
      <use xlink:href="#DejaVuSans-4f" transform="translate(1555.453125 0)"/>
      <use xlink:href="#DejaVuSans-48" transform="translate(1583.234375 0)"/>
      <use xlink:href="#DejaVuSans-56" transform="translate(1644.765625 0)"/>
     </g>
    </g>
   </g>
  </g>
 </g>
 <defs>
  <clipPath id="peb0eff7ef8">
   <rect x="53.722344" y="26.16" width="727.477656" height="205.317656"/>
  </clipPath>
 </defs>
</svg>
